<?xml version="1.0" encoding="UTF-8"?>
<svg xmlns="http://www.w3.org/2000/svg" xmlns:xlink="http://www.w3.org/1999/xlink" width="512px" height="512px" viewBox="0 0 512 512" version="1.1">
<g id="surface1">
<path style=" stroke:none;fill-rule:nonzero;fill:rgb(14.901961%,30.196078%,89.411765%);fill-opacity:1;" d="M 437.367188 100.621094 L 404.320312 470.820312 L 255.777344 512 L 107.644531 470.878906 L 74.632812 100.621094 Z M 437.367188 100.621094 "/>
<path style=" stroke:none;fill-rule:nonzero;fill:rgb(16.078431%,39.607843%,94.509804%);fill-opacity:1;" d="M 376.03125 447.246094 L 404.269531 130.894531 L 256 130.894531 L 256 480.523438 Z M 376.03125 447.246094 "/>
<path style=" stroke:none;fill-rule:nonzero;fill:rgb(92.156863%,92.156863%,92.156863%);fill-opacity:1;" d="M 150.308594 268.21875 L 154.378906 313.628906 L 256 313.628906 L 256 268.21875 Z M 150.308594 268.21875 "/>
<path style=" stroke:none;fill-rule:nonzero;fill:rgb(92.156863%,92.156863%,92.156863%);fill-opacity:1;" d="M 256 176.304688 L 142.132812 176.304688 L 146.261719 221.714844 L 256 221.714844 Z M 256 176.304688 "/>
<path style=" stroke:none;fill-rule:nonzero;fill:rgb(92.156863%,92.156863%,92.156863%);fill-opacity:1;" d="M 256 433.398438 L 256 386.152344 L 255.800781 386.207031 L 205.226562 372.550781 L 201.992188 336.332031 L 156.410156 336.332031 L 162.769531 407.632812 L 255.789062 433.457031 Z M 256 433.398438 "/>
<path style=" stroke:none;fill-rule:nonzero;fill:rgb(0%,0%,0%);fill-opacity:1;" d="M 160 0 L 215 0 L 215 23 L 183 23 L 183 46 L 215 46 L 215 69 L 160 69 Z M 160 0 "/>
<path style=" stroke:none;fill-rule:nonzero;fill:rgb(0%,0%,0%);fill-opacity:1;" d="M 226 0 L 281 0 L 281 20 L 249 20 L 249 24 L 281 24 L 281 70 L 226 70 L 226 49 L 258 49 L 258 45 L 226 45 Z M 226 0 "/>
<path style=" stroke:none;fill-rule:nonzero;fill:rgb(0%,0%,0%);fill-opacity:1;" d="M 292 0 L 347 0 L 347 20 L 315 20 L 315 24 L 347 24 L 347 70 L 292 70 L 292 49 L 324 49 L 324 45 L 292 45 Z M 292 0 "/>
<path style=" stroke:none;fill-rule:nonzero;fill:rgb(100%,100%,100%);fill-opacity:1;" d="M 311.761719 313.628906 L 306.488281 372.519531 L 255.84375 386.191406 L 255.84375 433.433594 L 348.9375 407.632812 L 349.621094 399.960938 L 360.289062 280.410156 L 361.398438 268.21875 L 369.597656 176.304688 L 255.84375 176.304688 L 255.84375 221.714844 L 319.832031 221.714844 L 315.699219 268.21875 L 255.84375 268.21875 L 255.84375 313.628906 Z M 311.761719 313.628906 "/>
</g>
</svg>
