<?xml version="1.0" encoding="UTF-8"?>
<svg xmlns="http://www.w3.org/2000/svg" xmlns:xlink="http://www.w3.org/1999/xlink" width="512px" height="512px" viewBox="0 0 512 512" version="1.1">
<defs>
<filter id="alpha" filterUnits="objectBoundingBox" x="0%" y="0%" width="100%" height="100%">
  <feColorMatrix type="matrix" in="SourceGraphic" values="0 0 0 0 1 0 0 0 0 1 0 0 0 0 1 0 0 0 1 0"/>
</filter>
<mask id="mask0">
  <g filter="url(#alpha)">
<rect x="0" y="0" width="512" height="512" style="fill:rgb(0%,0%,0%);fill-opacity:0.541176;stroke:none;"/>
  </g>
</mask>
<clipPath id="clip1">
  <rect x="0" y="0" width="512" height="512"/>
</clipPath>
<g id="surface5" clip-path="url(#clip1)">
<path style=" stroke:none;fill-rule:nonzero;fill:rgb(0%,0%,0%);fill-opacity:1;" d="M 153.679688 293.683594 L 144.101562 293.683594 L 144.101562 219.71875 L 187.601562 219.71875 L 187.601562 228.804688 L 153.679688 228.804688 L 153.679688 253.089844 L 184.277344 253.089844 L 184.277344 261.964844 L 153.679688 261.964844 Z M 205.609375 230.363281 C 203.324219 232.640625 199.738281 232.996094 197.046875 231.21875 C 194.351562 229.4375 193.300781 226.015625 194.535156 223.046875 C 195.769531 220.078125 198.945312 218.386719 202.121094 219.011719 C 205.292969 219.636719 207.582031 222.398438 207.585938 225.609375 C 207.613281 227.398438 206.898438 229.121094 205.601562 230.363281 Z M 205.609375 293.683594 L 196.03125 293.683594 L 196.03125 243.066406 L 205.609375 243.066406 Z M 226.625 293.683594 L 217.046875 293.683594 L 217.046875 243.066406 L 226.203125 243.066406 L 226.203125 251.328125 L 226.617188 251.328125 C 227.722656 248.417969 229.847656 245.996094 232.601562 244.511719 C 235.230469 242.835938 238.273438 241.90625 241.398438 241.824219 C 243.851562 241.753906 246.292969 242.175781 248.578125 243.066406 L 244.933594 251.941406 C 243.292969 251.398438 241.566406 251.15625 239.835938 251.214844 C 236.324219 251.234375 232.984375 252.714844 230.625 255.300781 C 227.953125 258.023438 226.617188 261.585938 226.617188 265.992188 Z M 274.820312 295.296875 C 267.121094 295.296875 260.859375 292.75 256.039062 287.65625 C 251.222656 282.558594 248.808594 276.132812 248.804688 268.375 C 248.664062 261.390625 251.171875 254.605469 255.828125 249.371094 C 260.292969 244.15625 266.890625 241.230469 273.78125 241.410156 C 281.34375 241.410156 287.398438 243.855469 291.945312 248.746094 C 296.492188 253.636719 298.761719 260.179688 298.757812 268.375 L 298.652344 270.132812 L 258.363281 270.132812 C 258.640625 275.226562 260.359375 279.261719 263.519531 282.238281 C 266.476562 285.117188 270.460938 286.714844 274.601562 286.675781 C 281.46875 286.675781 286.117188 283.785156 288.542969 278 L 297.082031 281.511719 C 295.351562 285.515625 292.496094 288.9375 288.859375 291.375 C 285.039062 293.988281 280.359375 295.296875 274.820312 295.296875 Z M 288.5625 262.207031 C 288.355469 259.3125 287.019531 256.558594 284.554688 253.945312 C 282.085938 251.328125 278.421875 250.050781 273.554688 250.101562 C 270.179688 250.042969 266.898438 251.222656 264.34375 253.410156 C 261.664062 255.742188 259.789062 258.847656 258.984375 262.289062 Z M 333.359375 295.296875 C 329.738281 295.367188 326.152344 294.535156 322.9375 292.875 C 320.113281 291.460938 317.722656 289.320312 316.019531 286.675781 L 315.605469 286.675781 L 315.605469 293.683594 L 306.441406 293.683594 L 306.441406 219.71875 L 316.019531 219.71875 L 316.019531 243.066406 L 315.605469 250.085938 L 316.019531 250.085938 C 317.722656 247.441406 320.113281 245.300781 322.9375 243.890625 C 326.148438 242.210938 329.730469 241.359375 333.359375 241.410156 C 339.953125 241.410156 345.644531 243.992188 350.433594 249.160156 C 355.226562 254.324219 357.617188 260.730469 357.613281 268.375 C 357.609375 276.019531 355.21875 282.425781 350.433594 287.589844 C 345.648438 292.753906 339.957031 295.324219 333.359375 295.296875 Z M 331.800781 286.621094 C 336.164062 286.65625 340.332031 284.832031 343.246094 281.609375 C 346.4375 278.269531 348.035156 273.84375 348.035156 268.332031 C 348.035156 262.824219 346.4375 258.398438 343.246094 255.058594 C 340.296875 251.875 336.140625 250.058594 331.785156 250.050781 C 327.429688 250.042969 323.265625 251.839844 320.304688 255.007812 C 317.148438 258.3125 315.570312 262.753906 315.570312 268.332031 C 315.570312 273.914062 317.164062 278.367188 320.351562 281.699219 C 323.285156 284.90625 327.464844 286.714844 331.832031 286.660156 Z M 381.996094 295.296875 C 376.574219 295.296875 372.050781 293.746094 368.417969 290.648438 C 364.785156 287.550781 362.964844 283.453125 362.953125 278.355469 C 362.953125 272.847656 365.105469 268.527344 369.410156 265.394531 C 373.714844 262.265625 379.019531 260.699219 385.328125 260.699219 C 390.949219 260.699219 395.558594 261.730469 399.152344 263.796875 L 399.152344 262.355469 C 399.289062 258.953125 397.871094 255.667969 395.296875 253.417969 C 392.675781 251.179688 389.300781 249.996094 385.84375 250.101562 C 383.195312 250.070312 380.585938 250.746094 378.296875 252.0625 C 376.152344 253.242188 374.503906 255.152344 373.664062 257.4375 L 364.921875 253.71875 C 366.105469 250.679688 368.429688 247.859375 371.910156 245.261719 C 375.390625 242.664062 379.957031 241.371094 385.648438 241.386719 C 392.152344 241.386719 397.574219 243.269531 401.910156 247.035156 C 406.246094 250.800781 408.398438 256.140625 408.367188 263.046875 L 408.367188 293.683594 L 399.179688 293.683594 L 399.179688 286.660156 L 398.765625 286.660156 C 394.941406 292.417969 389.355469 295.285156 382.007812 295.285156 Z M 383.558594 286.621094 C 387.582031 286.605469 391.445312 285.046875 394.339844 282.269531 C 397.421875 279.691406 399.207031 275.894531 399.214844 271.890625 C 396.507812 269.6875 392.441406 268.582031 387.019531 268.582031 C 382.371094 268.582031 378.867188 269.582031 376.507812 271.578125 C 374.308594 273.257812 373.003906 275.84375 372.972656 278.597656 C 372.925781 280.996094 374.164062 283.238281 376.226562 284.488281 C 378.390625 285.933594 380.949219 286.691406 383.558594 286.660156 Z M 436.527344 295.296875 C 430.835938 295.296875 426.136719 293.917969 422.429688 291.164062 C 418.820312 288.519531 416.011719 284.949219 414.296875 280.835938 L 422.835938 277.324219 C 425.546875 283.660156 430.152344 286.832031 436.65625 286.832031 C 439.242188 286.9375 441.792969 286.25 443.972656 284.871094 C 445.769531 283.761719 446.855469 281.804688 446.835938 279.703125 C 446.835938 276.402344 444.511719 274.164062 439.847656 272.988281 L 429.546875 270.511719 C 426.160156 269.621094 423 268.019531 420.289062 265.816406 C 417.398438 263.582031 415.773438 260.101562 415.914062 256.46875 C 415.914062 251.996094 417.90625 248.363281 421.898438 245.574219 C 426.070312 242.730469 431.039062 241.269531 436.101562 241.394531 C 440.324219 241.328125 444.492188 242.382812 448.167969 244.453125 C 451.636719 246.410156 454.316406 249.492188 455.761719 253.1875 L 447.441406 256.558594 C 445.574219 252.082031 441.6875 249.84375 435.785156 249.84375 C 433.273438 249.761719 430.789062 250.371094 428.605469 251.605469 C 426.816406 252.523438 425.691406 254.355469 425.695312 256.355469 C 425.695312 259.25 427.949219 261.214844 432.457031 262.25 L 442.546875 264.628906 C 447.335938 265.707031 450.875 267.589844 453.167969 270.277344 C 455.386719 272.792969 456.605469 276.023438 456.597656 279.367188 C 456.640625 283.820312 454.558594 288.035156 450.980469 290.726562 C 447.234375 293.773438 442.414062 295.296875 436.515625 295.296875 Z M 488.039062 295.296875 C 480.339844 295.296875 474.078125 292.75 469.257812 287.65625 C 464.441406 282.558594 462.027344 276.117188 462.023438 268.332031 C 461.882812 261.347656 464.386719 254.566406 469.046875 249.328125 C 473.527344 244.128906 480.132812 241.21875 487.023438 241.410156 C 494.609375 241.410156 500.667969 243.855469 505.1875 248.746094 C 509.707031 253.636719 511.976562 260.179688 512 268.375 L 511.894531 270.132812 L 471.574219 270.132812 C 471.851562 275.226562 473.570312 279.261719 476.730469 282.238281 C 479.691406 285.117188 483.6875 286.710938 487.835938 286.660156 C 494.703125 286.660156 499.351562 283.769531 501.777344 277.984375 L 510.316406 281.496094 C 508.585938 285.5 505.734375 288.921875 502.097656 291.359375 C 498.277344 293.984375 493.589844 295.296875 488.039062 295.296875 Z M 501.78125 262.207031 C 501.574219 259.3125 500.238281 256.558594 497.773438 253.945312 C 495.304688 251.328125 491.644531 250.050781 486.789062 250.101562 C 483.414062 250.046875 480.132812 251.222656 477.578125 253.410156 C 474.898438 255.742188 473.023438 258.847656 472.21875 262.289062 Z M 501.78125 262.207031 "/>
</g>
<mask id="mask1">
  <g filter="url(#alpha)">
<rect x="0" y="0" width="512" height="512" style="fill:rgb(0%,0%,0%);fill-opacity:0.2;stroke:none;"/>
  </g>
</mask>
<clipPath id="clip2">
  <rect x="0" y="0" width="512" height="512"/>
</clipPath>
<g id="surface8" clip-path="url(#clip2)">
<path style=" stroke:none;fill-rule:nonzero;fill:rgb(64.705882%,15.294118%,7.843137%);fill-opacity:1;" d="M 57.5 324.964844 C 54.542969 326.613281 50.941406 326.613281 47.988281 324.964844 L 1.023438 298.636719 L 0.910156 299.359375 L 47.988281 325.753906 C 50.941406 327.402344 54.542969 327.402344 57.5 325.753906 L 104.984375 299.359375 L 104.863281 298.613281 Z M 57.5 324.964844 "/>
</g>
<linearGradient id="linear0" gradientUnits="userSpaceOnUse" x1="-0.0349" y1="0.1702" x2="1.0083" y2="0.929" gradientTransform="matrix(103.710938,0,0,142.960938,1.089844,183.996094)">
<stop offset="0" style="stop-color:rgb(100%,100%,100%);stop-opacity:0.101961;"/>
<stop offset="0.14" style="stop-color:rgb(100%,100%,100%);stop-opacity:0.0784314;"/>
<stop offset="0.61" style="stop-color:rgb(100%,100%,100%);stop-opacity:0.0196078;"/>
<stop offset="1" style="stop-color:rgb(100%,100%,100%);stop-opacity:0;"/>
</linearGradient>
</defs>
<g id="surface1">
<use xlink:href="#surface5" mask="url(#mask0)"/>
<path style=" stroke:none;fill-rule:nonzero;fill:rgb(100%,62.745098%,0%);fill-opacity:1;" d="M 0.910156 299.359375 L 18.519531 186.667969 C 18.734375 185.285156 19.8125 184.195312 21.191406 183.960938 C 22.570312 183.726562 23.945312 184.402344 24.601562 185.636719 L 42.816406 219.605469 L 50.074219 205.78125 C 50.636719 204.714844 51.746094 204.046875 52.953125 204.046875 C 54.160156 204.046875 55.269531 204.714844 55.832031 205.78125 L 104.984375 299.359375 Z M 0.910156 299.359375 "/>
<path style=" stroke:none;fill-rule:nonzero;fill:rgb(96.078431%,48.627451%,0%);fill-opacity:1;" d="M 61.753906 255.460938 L 42.808594 219.589844 L 0.910156 299.359375 Z M 61.753906 255.460938 "/>
<path style=" stroke:none;fill-rule:nonzero;fill:rgb(100%,79.215686%,15.686275%);fill-opacity:1;" d="M 104.984375 299.359375 L 91.496094 215.890625 C 91.289062 214.691406 90.433594 213.707031 89.277344 213.335938 C 88.117188 212.964844 86.851562 213.273438 85.992188 214.132812 L 0.910156 299.359375 L 47.988281 325.757812 C 50.941406 327.410156 54.542969 327.410156 57.5 325.757812 Z M 104.984375 299.359375 "/>
<path style=" stroke:none;fill-rule:nonzero;fill:rgb(100%,100%,100%);fill-opacity:0.2;" d="M 91.496094 215.890625 C 91.289062 214.691406 90.433594 213.707031 89.277344 213.335938 C 88.117188 212.964844 86.851562 213.273438 85.988281 214.132812 L 69.105469 231.0625 L 55.824219 205.78125 C 55.261719 204.714844 54.15625 204.042969 52.945312 204.042969 C 51.738281 204.042969 50.628906 204.714844 50.066406 205.78125 L 42.808594 219.605469 L 24.59375 185.636719 C 23.933594 184.402344 22.558594 183.726562 21.175781 183.964844 C 19.796875 184.199219 18.726562 185.292969 18.511719 186.675781 L 0.910156 299.359375 L 0.851562 299.359375 L 0.910156 299.425781 L 1.375 299.652344 L 85.964844 214.960938 C 86.824219 214.097656 88.097656 213.789062 89.257812 214.160156 C 90.417969 214.527344 91.277344 215.515625 91.476562 216.71875 L 104.851562 299.441406 L 104.984375 299.359375 Z M 1.0625 299.207031 L 18.519531 187.472656 C 18.734375 186.089844 19.808594 184.996094 21.1875 184.761719 C 22.566406 184.523438 23.941406 185.199219 24.605469 186.433594 L 42.816406 220.402344 L 50.074219 206.578125 C 50.636719 205.511719 51.746094 204.84375 52.953125 204.84375 C 54.160156 204.84375 55.269531 205.511719 55.832031 206.578125 L 68.839844 231.320312 Z M 1.0625 299.207031 "/>
<use xlink:href="#surface8" mask="url(#mask1)"/>
<path style=" stroke:none;fill-rule:nonzero;fill:url(#linear0);" d="M 91.359375 215.90625 C 91.15625 214.707031 90.304688 213.722656 89.148438 213.355469 C 87.996094 212.984375 86.730469 213.292969 85.875 214.152344 L 69.046875 231.074219 L 55.816406 205.804688 C 55.253906 204.738281 54.148438 204.066406 52.945312 204.066406 C 51.742188 204.066406 50.640625 204.738281 50.078125 205.804688 L 42.84375 219.621094 L 24.695312 185.664062 C 24.035156 184.433594 22.664062 183.757812 21.289062 183.996094 C 19.914062 184.230469 18.84375 185.324219 18.632812 186.707031 L 1.089844 299.339844 L 48.003906 325.722656 C 50.949219 327.371094 54.539062 327.371094 57.484375 325.722656 L 104.800781 299.339844 Z M 91.359375 215.90625 "/>
</g>
</svg>
