<?xml version="1.0" encoding="UTF-8"?>
<svg xmlns="http://www.w3.org/2000/svg" xmlns:xlink="http://www.w3.org/1999/xlink" width="512px" height="512px" viewBox="0 0 512 512" version="1.1">
<g id="surface1">
<path style=" stroke:none;fill-rule:nonzero;fill:rgb(94.117647%,83.529412%,4.705882%);fill-opacity:1;" d="M 512 375.8125 C 512 375.8125 434.015625 364.261719 392.804688 360.945312 C 353.230469 357.765625 306.332031 355.929688 256.023438 355.929688 C 205.710938 355.929688 158.816406 357.765625 119.25 360.945312 C 78.03125 364.304688 0.0546875 380.335938 0.0546875 380.335938 L 0.0546875 400.488281 C 0.0546875 418.398438 114.660156 432.953125 256.023438 432.953125 C 397.382812 432.953125 511.988281 418.398438 511.988281 400.488281 Z M 512 375.8125 "/>
<path style=" stroke:none;fill-rule:nonzero;fill:rgb(94.117647%,83.529412%,4.705882%);fill-opacity:1;" d="M 177.320312 108.527344 C 83.851562 141.832031 21.433594 230.328125 21.429688 329.554688 L 21.429688 362.78125 C 54.78125 354.8125 88.789062 349.882812 123.035156 348.050781 C 122.804688 341.675781 122.683594 335.253906 122.675781 328.78125 C 122.710938 241.59375 143.757812 163.140625 177.320312 108.527344 Z M 177.320312 108.527344 "/>
<path style=" stroke:none;fill-rule:nonzero;fill:rgb(100%,94.117647%,30.196078%);fill-opacity:1;" d="M 490.605469 329.554688 C 490.6875 275.109375 471.746094 222.34375 437.058594 180.378906 C 452.097656 228.40625 459.589844 278.476562 459.269531 328.804688 C 459.269531 337.960938 459.035156 347.015625 458.566406 355.964844 C 469.238281 357.605469 479.8125 359.851562 490.238281 362.679688 Z M 490.605469 329.554688 "/>
<path style=" stroke:none;fill-rule:nonzero;fill:rgb(100%,91.764706%,0%);fill-opacity:1;" d="M 490.605469 329.554688 C 490.6875 275.109375 471.746094 222.34375 437.058594 180.378906 C 452.097656 228.40625 459.589844 278.476562 459.269531 328.804688 C 459.269531 337.960938 459.035156 347.015625 458.566406 355.964844 C 469.238281 357.605469 479.8125 359.851562 490.238281 362.679688 Z M 490.605469 329.554688 "/>
<path style=" stroke:none;fill-rule:nonzero;fill:rgb(100%,94.117647%,30.196078%);fill-opacity:1;" d="M 437.058594 180.367188 C 374.207031 104.179688 270.398438 75.46875 177.332031 108.527344 C 143.746094 163.140625 122.710938 241.59375 122.710938 328.792969 C 122.710938 335.265625 122.828125 341.6875 123.070312 348.058594 C 157.996094 345.363281 198.433594 343.695312 241.738281 343.390625 C 241.738281 343.390625 251.578125 343.390625 256.046875 343.390625 C 323.777344 342.578125 391.480469 346.796875 458.585938 356.007812 C 459.042969 347.054688 459.277344 338 459.292969 328.847656 C 459.609375 278.503906 452.109375 228.414062 437.058594 180.367188 Z M 437.058594 180.367188 "/>
<path style=" stroke:none;fill-rule:nonzero;fill:rgb(100%,94.117647%,30.196078%);fill-opacity:1;" d="M 350.386719 195.882812 L 335.519531 102.964844 C 334.464844 96.128906 329.566406 90.511719 322.9375 88.535156 C 279.617188 75.820312 233.558594 75.820312 190.238281 88.535156 C 183.613281 90.515625 178.722656 96.132812 177.667969 102.964844 L 162.789062 195.882812 "/>
<path style=" stroke:none;fill-rule:nonzero;fill:rgb(100%,94.117647%,30.196078%);fill-opacity:1;" d="M 256.046875 341.421875 C 251.566406 341.421875 247.121094 341.421875 242.710938 341.421875 L 241.726562 341.421875 C 107.015625 342.363281 0.0664062 356.511719 0.0664062 373.832031 L 0.0664062 398.929688 C -0.152344 400.402344 0.164062 401.902344 0.953125 403.164062 C 7.792969 398.023438 15.65625 394.414062 24.015625 392.574219 C 45.296875 387.394531 66.925781 383.773438 88.734375 381.734375 C 101.117188 380.375 113.488281 384.414062 122.6875 392.820312 C 139.53125 408.238281 161.539062 416.789062 184.375 416.789062 L 327.671875 416.789062 C 350.507812 416.789062 372.511719 408.238281 389.355469 392.820312 C 398.554688 384.40625 410.933594 380.363281 423.324219 381.722656 C 445.125 383.761719 466.753906 387.382812 488.03125 392.5625 C 495.945312 394.082031 503.417969 397.351562 509.90625 402.132812 C 510.277344 402.503906 510.703125 402.828125 511.027344 403.164062 C 511.820312 401.894531 512.136719 400.386719 511.921875 398.910156 L 511.921875 373.808594 C 512 355.953125 397.394531 341.421875 256.046875 341.421875 Z M 256.046875 341.421875 "/>
<path style=" stroke:none;fill-rule:nonzero;fill:rgb(43.137255%,43.529412%,43.921569%);fill-opacity:1;" d="M 309.960938 266.882812 L 255.976562 300.113281 L 255.976562 343.269531 Z M 309.960938 266.882812 "/>
<path style=" stroke:none;fill-rule:nonzero;fill:rgb(3.921569%,3.921569%,3.921569%);fill-opacity:1;" d="M 256.035156 343.269531 L 256.035156 300.113281 L 202.050781 266.882812 Z M 256.035156 343.269531 "/>
<path style=" stroke:none;fill-rule:nonzero;fill:rgb(3.921569%,3.921569%,3.921569%);fill-opacity:1;" d="M 202.050781 247.167969 L 256.035156 278.382812 L 256.035156 159.859375 Z M 202.050781 247.167969 "/>
<path style=" stroke:none;fill-rule:nonzero;fill:rgb(43.137255%,43.529412%,43.921569%);fill-opacity:1;" d="M 309.960938 247.167969 L 255.976562 159.847656 L 255.976562 278.371094 L 309.960938 247.160156 Z M 309.960938 247.167969 "/>
</g>
</svg>
