<?xml version="1.0" encoding="UTF-8"?>
<svg xmlns="http://www.w3.org/2000/svg" xmlns:xlink="http://www.w3.org/1999/xlink" width="512px" height="512px" viewBox="0 0 512 512" version="1.1">
<g id="surface1">
<path style=" stroke:none;fill-rule:nonzero;fill:rgb(0%,0%,0%);fill-opacity:1;" d="M 108.398438 0 L 131.398438 0 L 131.398438 22.800781 L 152.601562 22.800781 L 152.601562 0 L 175.601562 0 L 175.601562 69 L 152.601562 69 L 152.601562 46 L 131.601562 46 L 131.601562 69 L 108.398438 69 M 206 23 L 185.699219 23 L 185.699219 0 L 249.398438 0 L 249.398438 23 L 229 23 L 229 69 L 206 69 M 259.5 0 L 283.601562 0 L 298.398438 24.300781 L 313.199219 0 L 337.300781 0 L 337.300781 69 L 314.300781 69 L 314.300781 34.800781 L 298.199219 59.601562 L 282.101562 34.800781 L 282.101562 69 L 259.5 69 M 348.699219 0 L 371.699219 0 L 371.699219 46.199219 L 404.300781 46.199219 L 404.300781 69 L 348.699219 69 "/>
<path style=" stroke:none;fill-rule:nonzero;fill:rgb(89.411765%,30.196078%,14.901961%);fill-opacity:1;" d="M 107.601562 471 L 74.601562 100.601562 L 437.398438 100.601562 L 404.398438 470.800781 L 255.699219 512 "/>
<path style=" stroke:none;fill-rule:nonzero;fill:rgb(94.509804%,39.607843%,16.078431%);fill-opacity:1;" d="M 256 480.5 L 256 131 L 404.300781 131 L 376 447 "/>
<path style=" stroke:none;fill-rule:nonzero;fill:rgb(92.156863%,92.156863%,92.156863%);fill-opacity:1;" d="M 142 176.300781 L 256 176.300781 L 256 221.699219 L 191.800781 221.699219 L 196 268.199219 L 256 268.199219 L 256 313.5 L 154.398438 313.5 M 156.398438 336.300781 L 202 336.300781 L 205.199219 372.601562 L 256 386.199219 L 256 433.601562 L 162.800781 407.601562 "/>
<path style=" stroke:none;fill-rule:nonzero;fill:rgb(100%,100%,100%);fill-opacity:1;" d="M 369.601562 176.300781 L 255.800781 176.300781 L 255.800781 221.699219 L 365.398438 221.699219 M 361.300781 268.199219 L 255.800781 268.199219 L 255.800781 313.601562 L 311.800781 313.601562 L 306.5 372.601562 L 255.800781 386.199219 L 255.800781 433.398438 L 348.800781 407.601562 "/>
</g>
</svg>
