<?xml version="1.0" encoding="UTF-8"?>
<svg xmlns="http://www.w3.org/2000/svg" xmlns:xlink="http://www.w3.org/1999/xlink" width="512px" height="512px" viewBox="0 0 512 512" version="1.1">
<g id="surface1">
<path style=" stroke:none;fill-rule:nonzero;fill:rgb(89.411765%,30.196078%,14.901961%);fill-opacity:1;" d="M 74.632812 100.621094 L 437.371094 100.621094 L 404.320312 470.820312 L 255.78125 512 L 107.640625 470.878906 Z M 74.632812 100.621094 "/>
<path style=" stroke:none;fill-rule:nonzero;fill:rgb(94.509804%,39.607843%,16.078431%);fill-opacity:1;" d="M 376.03125 447.25 L 404.269531 130.890625 L 256 130.890625 L 256 480.519531 Z M 376.03125 447.25 "/>
<path style=" stroke:none;fill-rule:nonzero;fill:rgb(92.156863%,92.156863%,92.156863%);fill-opacity:1;" d="M 195.910156 268.21875 L 191.761719 221.71875 L 256 221.71875 L 256 176.300781 L 142.128906 176.300781 L 143.21875 188.488281 L 154.378906 313.628906 L 256 313.628906 L 256 268.21875 Z M 195.910156 268.21875 "/>
<path style=" stroke:none;fill-rule:nonzero;fill:rgb(92.156863%,92.156863%,92.156863%);fill-opacity:1;" d="M 255.800781 386.210938 L 205.230469 372.550781 L 201.988281 336.328125 L 156.410156 336.328125 L 162.769531 407.628906 L 255.789062 433.460938 L 256 433.398438 L 256 386.148438 Z M 255.800781 386.210938 "/>
<path style=" stroke:none;fill-rule:nonzero;fill:rgb(0%,0%,0%);fill-opacity:1;" d="M 108.378906 0 L 131.457031 0 L 131.457031 22.800781 L 152.566406 22.800781 L 152.566406 0 L 175.644531 0 L 175.644531 69.042969 L 152.566406 69.042969 L 152.566406 45.925781 L 131.453125 45.925781 L 131.453125 69.042969 L 108.378906 69.042969 Z M 108.378906 0 "/>
<path style=" stroke:none;fill-rule:nonzero;fill:rgb(0%,0%,0%);fill-opacity:1;" d="M 205.988281 22.894531 L 185.679688 22.894531 L 185.679688 0 L 249.398438 0 L 249.398438 22.894531 L 229.070312 22.894531 L 229.070312 69.042969 L 205.992188 69.042969 L 205.992188 22.894531 Z M 205.988281 22.894531 "/>
<path style=" stroke:none;fill-rule:nonzero;fill:rgb(0%,0%,0%);fill-opacity:1;" d="M 259.511719 0 L 283.574219 0 L 298.382812 24.261719 L 313.164062 0 L 337.234375 0 L 337.234375 69.042969 L 314.257812 69.042969 L 314.257812 34.820312 L 298.382812 59.371094 L 297.984375 59.371094 L 282.09375 34.820312 L 282.09375 69.042969 L 259.515625 69.042969 L 259.515625 0 Z M 259.511719 0 "/>
<path style=" stroke:none;fill-rule:nonzero;fill:rgb(0%,0%,0%);fill-opacity:1;" d="M 348.71875 0 L 371.804688 0 L 371.804688 46.222656 L 404.257812 46.222656 L 404.257812 69.042969 L 348.726562 69.042969 L 348.726562 0 Z M 348.71875 0 "/>
<path style=" stroke:none;fill-rule:nonzero;fill:rgb(100%,100%,100%);fill-opacity:1;" d="M 255.839844 313.628906 L 311.761719 313.628906 L 306.488281 372.519531 L 255.839844 386.191406 L 255.839844 433.441406 L 348.941406 407.628906 L 349.621094 399.960938 L 360.289062 280.410156 L 361.398438 268.21875 L 255.839844 268.21875 Z M 255.839844 313.628906 "/>
<path style=" stroke:none;fill-rule:nonzero;fill:rgb(100%,100%,100%);fill-opacity:1;" d="M 255.839844 204.511719 L 255.839844 221.71875 L 365.53125 221.71875 L 366.441406 211.511719 L 368.511719 188.488281 L 369.601562 176.300781 L 255.839844 176.300781 Z M 255.839844 204.511719 "/>
</g>
</svg>
