<?xml version="1.0" encoding="UTF-8"?>
<svg xmlns="http://www.w3.org/2000/svg" xmlns:xlink="http://www.w3.org/1999/xlink" width="512px" height="512px" viewBox="0 0 512 512" version="1.1">
<defs>
<clipPath id="clip1">
  <path d="M 0 0.503906 L 511.867188 0.503906 L 511.867188 512 L 0 512 Z M 0 0.503906 "/>
</clipPath>
</defs>
<g id="surface1">
<g clip-path="url(#clip1)" clip-rule="nonzero">
<path style=" stroke:none;fill-rule:nonzero;fill:rgb(96.862745%,87.45098%,11.764706%);fill-opacity:1;" d="M 0 0.503906 L 511.867188 0.503906 L 511.867188 512.140625 L 0 512.140625 Z M 0 0.503906 "/>
</g>
<path style=" stroke:none;fill-rule:nonzero;fill:rgb(18.431373%,18.039216%,17.647059%);fill-opacity:1;" d="M 134.414062 427.691406 L 173.535156 404.015625 C 181.082031 417.398438 187.949219 428.71875 204.414062 428.71875 C 220.199219 428.71875 230.152344 422.542969 230.152344 398.527344 L 230.152344 235.1875 L 278.191406 235.1875 L 278.191406 399.210938 C 278.191406 448.964844 249.027344 471.613281 206.472656 471.613281 C 168.046875 471.613281 145.738281 451.710938 134.414062 427.691406 "/>
<path style=" stroke:none;fill-rule:nonzero;fill:rgb(18.431373%,18.039216%,17.647059%);fill-opacity:1;" d="M 304.273438 422.542969 L 343.390625 399.898438 C 353.6875 416.710938 367.066406 429.066406 390.742188 429.066406 C 410.648438 429.066406 423.339844 419.113281 423.339844 405.386719 C 423.339844 388.917969 410.304688 383.082031 388.339844 373.476562 L 376.335938 368.328125 C 341.675781 353.574219 318.683594 335.042969 318.683594 295.925781 C 318.683594 259.898438 346.132812 232.445312 389.027344 232.445312 C 419.566406 232.445312 441.527344 243.082031 457.3125 270.878906 L 419.910156 294.894531 C 411.671875 280.140625 402.753906 274.308594 389.027344 274.308594 C 374.960938 274.308594 366.039062 283.230469 366.039062 294.894531 C 366.039062 309.308594 374.960938 315.144531 395.546875 324.066406 L 407.554688 329.210938 C 448.390625 346.710938 471.378906 364.554688 471.378906 404.699219 C 471.378906 447.9375 437.410156 471.613281 391.773438 471.613281 C 347.164062 471.613281 318.339844 450.339844 304.273438 422.542969 "/>
</g>
</svg>
