<?xml version="1.0" encoding="UTF-8"?>
<svg xmlns="http://www.w3.org/2000/svg" xmlns:xlink="http://www.w3.org/1999/xlink" width="512px" height="512px" viewBox="0 0 512 384" version="1.1">
<defs>
<clipPath id="clip1">
  <path d="M 64.136719 169.613281 L 260 169.613281 L 260 197.78125 L 64.136719 197.78125 Z M 64.136719 169.613281 "/>
</clipPath>
<clipPath id="clip2">
  <path d="M 258 169.613281 L 380.773438 169.613281 L 380.773438 197.78125 L 258 197.78125 Z M 258 169.613281 "/>
</clipPath>
<clipPath id="clip3">
  <path d="M 194.878906 204.433594 L 380.773438 204.433594 L 380.773438 214.757812 L 194.878906 214.757812 Z M 194.878906 204.433594 "/>
</clipPath>
<clipPath id="clip4">
  <path d="M 417 161.179688 L 424 161.179688 L 424 177 L 417 177 Z M 417 161.179688 "/>
</clipPath>
<clipPath id="clip5">
  <path d="M 410 207 L 417 207 L 417 223.195312 L 410 223.195312 Z M 410 207 "/>
</clipPath>
<clipPath id="clip6">
  <path d="M 429 193 L 447.394531 193 L 447.394531 206 L 429 206 Z M 429 193 "/>
</clipPath>
<clipPath id="clip7">
  <path d="M 387.425781 193 L 406 193 L 406 206 L 387.425781 206 Z M 387.425781 193 "/>
</clipPath>
</defs>
<g id="surface1">
<rect x="0" y="0" width="512" height="384" style="fill:rgb(1.176471%,1.176471%,1.176471%);fill-opacity:1;stroke:none;"/>
<g clip-path="url(#clip1)" clip-rule="nonzero">
<path style=" stroke:none;fill-rule:nonzero;fill:rgb(99.607843%,99.607843%,99.607843%);fill-opacity:1;" d="M 81.695312 171.753906 L 79.292969 171.46875 L 74.335938 171.46875 L 72.222656 171.710938 L 70.925781 173.035156 L 70.613281 174.761719 L 70.613281 185.203125 L 70.925781 186.929688 L 72.261719 188.222656 L 74.335938 188.46875 L 79.292969 188.46875 L 81.695312 188.183594 L 81.179688 185.960938 L 79.25 186.289062 L 74.460938 186.289062 L 73.105469 186.085938 L 72.820312 184.847656 L 72.820312 174.960938 L 73.019531 173.835938 L 74.460938 173.605469 L 79.167969 173.605469 L 81.28125 173.953125 Z M 73.222656 169.617188 L 79.554688 169.617188 C 80.941406 169.617188 82.195312 169.824219 83.320312 170.238281 C 84.441406 170.648438 85.398438 171.210938 86.191406 171.921875 C 86.976562 172.636719 87.582031 173.46875 88.007812 174.414062 C 88.429688 175.371094 88.640625 176.378906 88.640625 177.445312 L 88.640625 189.949219 C 88.640625 191.015625 88.429688 192.027344 88.007812 192.980469 C 87.582031 193.9375 86.976562 194.769531 86.191406 195.484375 C 85.398438 196.195312 84.441406 196.757812 83.320312 197.167969 C 82.195312 197.578125 80.941406 197.78125 79.554688 197.78125 L 73.222656 197.78125 C 71.84375 197.78125 70.589844 197.578125 69.46875 197.167969 C 68.339844 196.757812 67.382812 196.195312 66.597656 195.484375 C 65.8125 194.769531 65.203125 193.9375 64.777344 192.980469 C 64.351562 192.027344 64.136719 191.015625 64.136719 189.949219 L 64.136719 177.445312 C 64.136719 176.378906 64.351562 175.371094 64.777344 174.414062 C 65.203125 173.46875 65.8125 172.636719 66.597656 171.921875 C 67.382812 171.210938 68.339844 170.648438 69.46875 170.238281 C 70.589844 169.824219 71.84375 169.617188 73.222656 169.617188 Z M 97.566406 169.617188 L 103.898438 169.617188 C 105.277344 169.617188 106.53125 169.824219 107.652344 170.238281 C 108.78125 170.648438 109.738281 171.210938 110.523438 171.921875 C 111.308594 172.636719 111.917969 173.46875 112.34375 174.414062 C 112.769531 175.371094 112.984375 176.378906 112.984375 177.445312 L 112.984375 189.949219 C 112.984375 191.015625 112.769531 192.027344 112.34375 192.980469 C 111.917969 193.9375 111.308594 194.769531 110.523438 195.484375 C 109.738281 196.195312 108.78125 196.757812 107.652344 197.167969 C 106.53125 197.578125 105.277344 197.78125 103.898438 197.78125 L 97.566406 197.78125 C 96.179688 197.78125 94.925781 197.578125 93.800781 197.167969 C 92.679688 196.757812 91.722656 196.195312 90.929688 195.484375 C 90.144531 194.769531 89.539062 193.9375 89.113281 192.980469 C 88.691406 192.027344 88.480469 191.015625 88.480469 189.949219 L 88.480469 177.445312 C 88.480469 176.378906 88.691406 175.371094 89.113281 174.414062 C 89.539062 173.46875 90.144531 172.636719 90.929688 171.921875 C 91.722656 171.210938 92.679688 170.648438 93.800781 170.238281 C 94.925781 169.824219 96.179688 169.617188 97.566406 169.617188 Z M 104.636719 182.28125 L 104.941406 183.390625 L 104.941406 188.46875 L 107.121094 188.46875 L 107.121094 183.164062 L 106.40625 181.277344 L 104.058594 180.425781 L 106.324219 179.339844 L 106.953125 177.488281 L 106.953125 175.207031 L 106.710938 173.480469 L 105.355469 171.753906 L 103.300781 171.46875 L 95.628906 171.46875 L 95.628906 188.46875 L 97.828125 188.46875 L 97.828125 181.625 L 103.171875 181.625 Z M 97.828125 173.648438 L 103.171875 173.648438 L 104.636719 174.28125 L 104.78125 175.476562 L 104.78125 177.65625 L 104.46875 178.785156 L 103.171875 179.425781 L 97.828125 179.425781 Z M 131.5 188.46875 L 131.5 186.289062 L 123.296875 186.289062 L 123.296875 181.066406 L 130.167969 181.066406 L 130.167969 178.910156 L 123.296875 178.910156 L 123.296875 173.648438 L 131.210938 173.648438 L 131.210938 171.46875 L 121.160156 171.46875 L 121.160156 188.46875 Z M 121.898438 169.617188 L 128.230469 169.617188 C 129.617188 169.617188 130.871094 169.824219 131.996094 170.238281 C 133.117188 170.648438 134.070312 171.210938 134.859375 171.921875 C 135.648438 172.636719 136.253906 173.46875 136.675781 174.414062 C 137.101562 175.371094 137.316406 176.378906 137.316406 177.445312 L 137.316406 189.949219 C 137.316406 191.015625 137.101562 192.027344 136.675781 192.980469 C 136.253906 193.9375 135.648438 194.769531 134.859375 195.484375 C 134.070312 196.195312 133.117188 196.757812 131.996094 197.167969 C 130.871094 197.578125 129.617188 197.78125 128.230469 197.78125 L 121.898438 197.78125 C 120.519531 197.78125 119.265625 197.578125 118.136719 197.167969 C 117.011719 196.757812 116.058594 196.195312 115.273438 195.484375 C 114.480469 194.769531 113.875 193.9375 113.453125 192.980469 C 113.027344 192.027344 112.8125 191.015625 112.8125 189.949219 L 112.8125 177.445312 C 112.8125 176.378906 113.027344 175.371094 113.453125 174.414062 C 113.875 173.46875 114.480469 172.636719 115.273438 171.921875 C 116.058594 171.210938 117.011719 170.648438 118.136719 170.238281 C 119.265625 169.824219 120.519531 169.617188 121.898438 169.617188 Z M 154.957031 188.46875 L 154.957031 186.289062 L 148.640625 186.289062 L 148.640625 171.46875 L 146.460938 171.46875 L 146.460938 188.46875 Z M 146.234375 169.617188 L 152.566406 169.617188 C 153.953125 169.617188 155.207031 169.824219 156.328125 170.238281 C 157.453125 170.648438 158.410156 171.210938 159.199219 171.921875 C 159.984375 172.636719 160.59375 173.46875 161.019531 174.414062 C 161.445312 175.371094 161.660156 176.378906 161.660156 177.445312 L 161.660156 189.949219 C 161.660156 191.015625 161.445312 192.027344 161.019531 192.980469 C 160.59375 193.9375 159.984375 194.769531 159.199219 195.484375 C 158.410156 196.195312 157.453125 196.757812 156.328125 197.167969 C 155.207031 197.578125 153.953125 197.78125 152.566406 197.78125 L 146.234375 197.78125 C 144.851562 197.78125 143.601562 197.578125 142.476562 197.167969 C 141.351562 196.757812 140.394531 196.195312 139.605469 195.484375 C 138.820312 194.769531 138.214844 193.9375 137.789062 192.980469 C 137.363281 192.027344 137.148438 191.015625 137.148438 189.949219 L 137.148438 177.445312 C 137.148438 176.378906 137.363281 175.371094 137.789062 174.414062 C 138.214844 173.46875 138.820312 172.636719 139.605469 171.921875 C 140.394531 171.210938 141.351562 170.648438 142.476562 170.238281 C 143.601562 169.824219 144.851562 169.617188 146.234375 169.617188 Z M 170.574219 169.617188 L 176.90625 169.617188 C 178.289062 169.617188 179.542969 169.824219 180.671875 170.238281 C 181.792969 170.648438 182.75 171.210938 183.535156 171.921875 C 184.324219 172.636719 184.933594 173.46875 185.351562 174.414062 C 185.78125 175.371094 185.992188 176.378906 185.992188 177.445312 L 185.992188 189.949219 C 185.992188 191.015625 185.78125 192.027344 185.351562 192.980469 C 184.933594 193.9375 184.324219 194.769531 183.535156 195.484375 C 182.75 196.195312 181.792969 196.757812 180.671875 197.167969 C 179.542969 197.578125 178.289062 197.78125 176.90625 197.78125 L 170.574219 197.78125 C 169.1875 197.78125 167.933594 197.578125 166.8125 197.167969 C 165.6875 196.757812 164.730469 196.195312 163.941406 195.484375 C 163.15625 194.769531 162.546875 193.9375 162.121094 192.980469 C 161.699219 192.027344 161.492188 191.015625 161.492188 189.949219 L 161.492188 177.445312 C 161.492188 176.378906 161.699219 175.371094 162.121094 174.414062 C 162.546875 173.46875 163.15625 172.636719 163.941406 171.921875 C 164.730469 171.210938 165.6875 170.648438 166.8125 170.238281 C 167.933594 169.824219 169.1875 169.617188 170.574219 169.617188 Z M 178.40625 184.089844 L 178.792969 188.46875 L 181.144531 188.46875 L 179.519531 173.152344 L 178.238281 171.882812 L 175.511719 171.46875 L 173.3125 171.46875 L 170.574219 171.882812 L 169.320312 173.152344 L 167.636719 188.46875 L 170.078125 188.46875 L 170.40625 184.089844 L 170.617188 182.195312 L 178.203125 182.195312 Z M 175.425781 173.648438 L 177.363281 173.953125 C 177.457031 175.0625 177.566406 176.113281 177.691406 177.101562 C 177.8125 178.089844 177.929688 179.128906 178.035156 180.226562 L 170.804688 180.226562 L 171.417969 173.953125 C 171.800781 173.914062 172.128906 173.867188 172.410156 173.808594 C 172.691406 173.757812 173.027344 173.707031 173.414062 173.648438 Z M 205.148438 173.648438 L 205.148438 171.46875 L 193.269531 171.46875 L 193.269531 173.648438 L 198.117188 173.648438 L 198.117188 188.46875 L 200.316406 188.46875 L 200.316406 173.648438 Z M 194.910156 169.617188 L 201.242188 169.617188 C 202.628906 169.617188 203.882812 169.824219 205.003906 170.238281 C 206.128906 170.648438 207.085938 171.210938 207.875 171.921875 C 208.664062 172.636719 209.269531 173.46875 209.695312 174.414062 C 210.117188 175.371094 210.328125 176.378906 210.328125 177.445312 L 210.328125 189.949219 C 210.328125 191.015625 210.117188 192.027344 209.695312 192.980469 C 209.269531 193.9375 208.664062 194.769531 207.875 195.484375 C 207.085938 196.195312 206.128906 196.757812 205.003906 197.167969 C 203.882812 197.578125 202.628906 197.78125 201.242188 197.78125 L 194.910156 197.78125 C 193.527344 197.78125 192.273438 197.578125 191.144531 197.167969 C 190.023438 196.757812 189.070312 196.195312 188.28125 195.484375 C 187.492188 194.769531 186.886719 193.9375 186.464844 192.980469 C 186.039062 192.027344 185.824219 191.015625 185.824219 189.949219 L 185.824219 177.445312 C 185.824219 176.378906 186.039062 175.371094 186.464844 174.414062 C 186.886719 173.46875 187.492188 172.636719 188.28125 171.921875 C 189.070312 171.210938 190.023438 170.648438 191.144531 170.238281 C 192.273438 169.824219 193.527344 169.617188 194.910156 169.617188 Z M 219.253906 169.617188 L 225.585938 169.617188 C 226.964844 169.617188 228.214844 169.824219 229.339844 170.238281 C 230.46875 170.648438 231.425781 171.210938 232.210938 171.921875 C 232.996094 172.636719 233.601562 173.46875 234.03125 174.414062 C 234.457031 175.371094 234.667969 176.378906 234.667969 177.445312 L 234.667969 189.949219 C 234.667969 191.015625 234.457031 192.027344 234.03125 192.980469 C 233.601562 193.9375 232.996094 194.769531 232.210938 195.484375 C 231.425781 196.195312 230.46875 196.757812 229.339844 197.167969 C 228.214844 197.578125 226.964844 197.78125 225.585938 197.78125 L 219.253906 197.78125 C 217.867188 197.78125 216.609375 197.578125 215.488281 197.167969 C 214.367188 196.757812 213.410156 196.195312 212.617188 195.484375 C 211.832031 194.769531 211.226562 193.9375 210.796875 192.980469 C 210.371094 192.027344 210.160156 191.015625 210.160156 189.949219 L 210.160156 177.445312 C 210.160156 176.378906 210.371094 175.371094 210.796875 174.414062 C 211.226562 173.46875 211.832031 172.636719 212.617188 171.921875 C 213.410156 171.210938 214.367188 170.648438 215.488281 170.238281 C 216.609375 169.824219 217.867188 169.617188 219.253906 169.617188 Z M 229.8125 185.160156 L 229.8125 174.804688 L 229.523438 173.066406 L 228.226562 171.753906 L 226.113281 171.46875 L 220.609375 171.46875 L 218.511719 171.753906 L 217.1875 173.066406 L 216.945312 174.804688 L 216.945312 185.160156 L 217.1875 186.929688 L 218.554688 188.222656 L 220.609375 188.46875 L 226.113281 188.46875 L 228.226562 188.222656 L 229.523438 186.929688 Z M 227.636719 184.933594 L 227.351562 186.085938 L 225.988281 186.289062 L 220.726562 186.289062 L 219.394531 186.085938 L 219.082031 184.847656 L 219.082031 175.003906 L 219.285156 173.875 L 220.726562 173.648438 L 225.988281 173.648438 L 227.429688 173.875 L 227.636719 175.089844 Z M 243.585938 169.617188 L 249.917969 169.617188 C 251.300781 169.617188 252.554688 169.824219 253.683594 170.238281 C 254.804688 170.648438 255.757812 171.210938 256.542969 171.921875 C 257.335938 172.636719 257.941406 173.46875 258.363281 174.414062 C 258.789062 175.371094 259.003906 176.378906 259.003906 177.445312 L 259.003906 189.949219 C 259.003906 191.015625 258.789062 192.027344 258.363281 192.980469 C 257.941406 193.9375 257.335938 194.769531 256.542969 195.484375 C 255.757812 196.195312 254.804688 196.757812 253.683594 197.167969 C 252.554688 197.578125 251.300781 197.78125 249.917969 197.78125 L 243.585938 197.78125 C 242.199219 197.78125 240.945312 197.578125 239.824219 197.167969 C 238.699219 196.757812 237.746094 196.195312 236.960938 195.484375 C 236.167969 194.769531 235.5625 193.9375 235.140625 192.980469 C 234.714844 192.027344 234.5 191.015625 234.5 189.949219 L 234.5 177.445312 C 234.5 176.378906 234.714844 175.371094 235.140625 174.414062 C 235.5625 173.46875 236.167969 172.636719 236.960938 171.921875 C 237.746094 171.210938 238.699219 170.648438 239.824219 170.238281 C 240.945312 169.824219 242.199219 169.617188 243.585938 169.617188 Z M 250.660156 182.28125 L 250.960938 183.390625 L 250.960938 188.46875 L 253.144531 188.46875 L 253.144531 183.164062 L 252.425781 181.277344 L 250.078125 180.425781 L 252.34375 179.339844 L 252.984375 177.488281 L 252.984375 175.207031 L 252.730469 173.480469 L 251.375 171.753906 L 249.320312 171.46875 L 241.648438 171.46875 L 241.648438 188.46875 L 243.855469 188.46875 L 243.855469 181.625 L 249.195312 181.625 Z M 243.855469 173.648438 L 249.195312 173.648438 L 250.660156 174.28125 L 250.800781 175.476562 L 250.800781 177.65625 L 250.492188 178.785156 L 249.195312 179.425781 L 243.855469 179.425781 Z M 243.855469 173.648438 "/>
</g>
<g clip-path="url(#clip2)" clip-rule="nonzero">
<path style=" stroke:none;fill-rule:nonzero;fill:rgb(100%,100%,100%);fill-opacity:1;" d="M 268.003906 169.617188 L 274.335938 169.617188 C 275.722656 169.617188 276.976562 169.824219 278.101562 170.238281 C 279.222656 170.648438 280.179688 171.210938 280.972656 171.921875 C 281.757812 172.636719 282.363281 173.46875 282.789062 174.414062 C 283.210938 175.371094 283.421875 176.378906 283.421875 177.445312 L 283.421875 189.949219 C 283.421875 191.015625 283.210938 192.027344 282.789062 192.980469 C 282.363281 193.9375 281.757812 194.769531 280.972656 195.484375 C 280.179688 196.195312 279.222656 196.757812 278.101562 197.167969 C 276.976562 197.578125 275.722656 197.78125 274.335938 197.78125 L 268.003906 197.78125 C 266.625 197.78125 265.371094 197.578125 264.25 197.167969 C 263.121094 196.757812 262.164062 196.195312 261.378906 195.484375 C 260.59375 194.769531 259.984375 193.9375 259.558594 192.980469 C 259.132812 192.027344 258.917969 191.015625 258.917969 189.949219 L 258.917969 177.445312 C 258.917969 176.378906 259.132812 175.371094 259.558594 174.414062 C 259.984375 173.46875 260.59375 172.636719 261.378906 171.921875 C 262.164062 171.210938 263.121094 170.648438 264.25 170.238281 C 265.371094 169.824219 266.625 169.617188 268.003906 169.617188 Z M 271.808594 173.21875 L 271.128906 171.796875 L 270 171.46875 L 267.304688 171.46875 L 265.578125 171.753906 L 264.265625 173.066406 L 264.265625 188.46875 L 266.464844 188.46875 L 266.464844 173.835938 C 266.652344 173.789062 266.824219 173.761719 266.976562 173.75 C 267.128906 173.738281 267.292969 173.707031 267.472656 173.648438 L 269.816406 173.648438 C 269.964844 173.707031 270.113281 173.738281 270.261719 173.75 C 270.402344 173.761719 270.546875 173.789062 270.699219 173.835938 L 270.699219 182.550781 L 272.894531 182.550781 L 272.894531 173.835938 L 273.78125 173.648438 L 276.144531 173.648438 C 276.308594 173.707031 276.476562 173.738281 276.644531 173.75 C 276.804688 173.761719 276.976562 173.789062 277.15625 173.835938 L 277.15625 188.46875 L 279.335938 188.46875 L 279.335938 173.066406 L 278.039062 171.753906 L 276.316406 171.46875 L 273.621094 171.46875 L 272.507812 171.796875 Z M 301.945312 188.46875 L 301.945312 186.289062 L 293.746094 186.289062 L 293.746094 181.066406 L 300.605469 181.066406 L 300.605469 178.910156 L 293.746094 178.910156 L 293.746094 173.648438 L 301.660156 173.648438 L 301.660156 171.46875 L 291.605469 171.46875 L 291.605469 188.46875 Z M 292.347656 169.617188 L 298.679688 169.617188 C 300.058594 169.617188 301.3125 169.824219 302.433594 170.238281 C 303.5625 170.648438 304.519531 171.210938 305.304688 171.921875 C 306.089844 172.636719 306.695312 173.46875 307.125 174.414062 C 307.550781 175.371094 307.765625 176.378906 307.765625 177.445312 L 307.765625 189.949219 C 307.765625 191.015625 307.550781 192.027344 307.125 192.980469 C 306.695312 193.9375 306.089844 194.769531 305.304688 195.484375 C 304.519531 196.195312 303.5625 196.757812 302.433594 197.167969 C 301.3125 197.578125 300.058594 197.78125 298.679688 197.78125 L 292.347656 197.78125 C 290.960938 197.78125 289.707031 197.578125 288.582031 197.167969 C 287.460938 196.757812 286.503906 196.195312 285.710938 195.484375 C 284.925781 194.769531 284.320312 193.9375 283.894531 192.980469 C 283.472656 192.027344 283.261719 191.015625 283.261719 189.949219 L 283.261719 177.445312 C 283.261719 176.378906 283.472656 175.371094 283.894531 174.414062 C 284.320312 173.46875 284.925781 172.636719 285.710938 171.921875 C 286.503906 171.210938 287.460938 170.648438 288.582031 170.238281 C 289.707031 169.824219 290.960938 169.617188 292.347656 169.617188 Z M 316.679688 169.617188 L 323.011719 169.617188 C 324.398438 169.617188 325.652344 169.824219 326.777344 170.238281 C 327.898438 170.648438 328.851562 171.210938 329.640625 171.921875 C 330.429688 172.636719 331.035156 173.46875 331.457031 174.414062 C 331.882812 175.371094 332.097656 176.378906 332.097656 177.445312 L 332.097656 189.949219 C 332.097656 191.015625 331.882812 192.027344 331.457031 192.980469 C 331.035156 193.9375 330.429688 194.769531 329.640625 195.484375 C 328.851562 196.195312 327.898438 196.757812 326.777344 197.167969 C 325.652344 197.578125 324.398438 197.78125 323.011719 197.78125 L 316.679688 197.78125 C 315.300781 197.78125 314.046875 197.578125 312.917969 197.167969 C 311.792969 196.757812 310.839844 196.195312 310.054688 195.484375 C 309.261719 194.769531 308.65625 193.9375 308.234375 192.980469 C 307.808594 192.027344 307.59375 191.015625 307.59375 189.949219 L 307.59375 177.445312 C 307.59375 176.378906 307.808594 175.371094 308.234375 174.414062 C 308.65625 173.46875 309.261719 172.636719 310.054688 171.921875 C 310.839844 171.210938 311.792969 170.648438 312.917969 170.238281 C 314.046875 169.824219 315.300781 169.617188 316.679688 169.617188 Z M 327.289062 185.160156 L 327.289062 174.804688 L 327.003906 173.066406 L 325.707031 171.753906 L 323.585938 171.46875 L 314.425781 171.46875 L 314.425781 188.46875 L 323.585938 188.46875 L 325.707031 188.222656 L 327.003906 186.929688 Z M 325.109375 184.933594 L 324.824219 186.085938 L 323.46875 186.289062 L 316.554688 186.289062 L 316.554688 173.648438 L 323.46875 173.648438 L 324.90625 173.875 L 325.109375 175.089844 Z M 344.222656 186.289062 L 339.371094 186.289062 L 339.371094 188.46875 L 351.253906 188.46875 L 351.253906 186.289062 L 346.429688 186.289062 L 346.429688 173.648438 L 351.253906 173.648438 L 351.253906 171.46875 L 339.371094 171.46875 L 339.371094 173.648438 L 344.222656 173.648438 Z M 341.015625 169.617188 L 347.347656 169.617188 C 348.734375 169.617188 349.988281 169.824219 351.109375 170.238281 C 352.234375 170.648438 353.191406 171.210938 353.980469 171.921875 C 354.765625 172.636719 355.375 173.46875 355.800781 174.414062 C 356.226562 175.371094 356.441406 176.378906 356.441406 177.445312 L 356.441406 189.949219 C 356.441406 191.015625 356.226562 192.027344 355.800781 192.980469 C 355.375 193.9375 354.765625 194.769531 353.980469 195.484375 C 353.191406 196.195312 352.234375 196.757812 351.109375 197.167969 C 349.988281 197.578125 348.734375 197.78125 347.347656 197.78125 L 341.015625 197.78125 C 339.632812 197.78125 338.382812 197.578125 337.257812 197.167969 C 336.132812 196.757812 335.175781 196.195312 334.386719 195.484375 C 333.601562 194.769531 332.996094 193.9375 332.570312 192.980469 C 332.144531 192.027344 331.929688 191.015625 331.929688 189.949219 L 331.929688 177.445312 C 331.929688 176.378906 332.144531 175.371094 332.570312 174.414062 C 332.996094 173.46875 333.601562 172.636719 334.386719 171.921875 C 335.175781 171.210938 336.132812 170.648438 337.257812 170.238281 C 338.382812 169.824219 339.632812 169.617188 341.015625 169.617188 Z M 365.355469 169.617188 L 371.6875 169.617188 C 373.070312 169.617188 374.324219 169.824219 375.453125 170.238281 C 376.574219 170.648438 377.53125 171.210938 378.316406 171.921875 C 379.105469 172.636719 379.714844 173.46875 380.132812 174.414062 C 380.5625 175.371094 380.773438 176.378906 380.773438 177.445312 L 380.773438 189.949219 C 380.773438 191.015625 380.5625 192.027344 380.132812 192.980469 C 379.714844 193.9375 379.105469 194.769531 378.316406 195.484375 C 377.53125 196.195312 376.574219 196.757812 375.453125 197.167969 C 374.324219 197.578125 373.070312 197.78125 371.6875 197.78125 L 365.355469 197.78125 C 363.96875 197.78125 362.714844 197.578125 361.59375 197.167969 C 360.46875 196.757812 359.511719 196.195312 358.722656 195.484375 C 357.9375 194.769531 357.328125 193.9375 356.902344 192.980469 C 356.480469 192.027344 356.273438 191.015625 356.273438 189.949219 L 356.273438 177.445312 C 356.273438 176.378906 356.480469 175.371094 356.902344 174.414062 C 357.328125 173.46875 357.9375 172.636719 358.722656 171.921875 C 359.511719 171.210938 360.46875 170.648438 361.59375 170.238281 C 362.714844 169.824219 363.96875 169.617188 365.355469 169.617188 Z M 373.1875 184.089844 L 373.574219 188.46875 L 375.925781 188.46875 L 374.300781 173.152344 L 373.019531 171.882812 L 370.292969 171.46875 L 368.09375 171.46875 L 365.355469 171.882812 L 364.101562 173.152344 L 362.417969 188.46875 L 364.859375 188.46875 L 365.1875 184.089844 L 365.398438 182.195312 L 372.984375 182.195312 Z M 370.207031 173.648438 L 372.144531 173.953125 C 372.238281 175.0625 372.347656 176.113281 372.472656 177.101562 C 372.59375 178.089844 372.710938 179.128906 372.816406 180.226562 L 365.585938 180.226562 L 366.199219 173.953125 C 366.582031 173.914062 366.910156 173.867188 367.191406 173.808594 C 367.472656 173.757812 367.808594 173.707031 368.195312 173.648438 Z M 370.207031 173.648438 "/>
</g>
<g clip-path="url(#clip3)" clip-rule="nonzero">
<path style=" stroke:none;fill-rule:nonzero;fill:rgb(100%,100%,100%);fill-opacity:1;" d="M 207.898438 214.5625 L 206.246094 210.964844 C 206.203125 210.890625 206.183594 210.785156 206.183594 210.648438 C 206.183594 210.511719 206.191406 210.359375 206.214844 210.1875 L 206.085938 210.1875 L 205.324219 214.5625 L 202.242188 214.5625 L 204.027344 204.433594 L 206.925781 204.433594 L 208.582031 208.03125 C 208.613281 208.105469 208.628906 208.210938 208.628906 208.347656 C 208.628906 208.480469 208.617188 208.636719 208.597656 208.808594 L 208.726562 208.808594 L 209.503906 204.433594 L 212.585938 204.433594 L 210.800781 214.5625 Z M 201.886719 213.785156 L 201.757812 214.515625 L 194.882812 213.785156 Z M 202.4375 210.65625 L 202.308594 211.386719 L 195.433594 210.65625 Z M 202.714844 209.101562 L 202.582031 209.832031 L 195.710938 209.101562 Z M 202.988281 207.546875 L 202.859375 208.273438 L 195.984375 207.546875 Z M 203.246094 205.988281 L 203.132812 206.71875 L 196.261719 205.988281 Z M 202.160156 212.214844 L 202.03125 212.941406 L 195.160156 212.214844 Z M 203.523438 204.433594 L 203.394531 205.160156 L 196.535156 204.433594 Z M 220.980469 205.828125 C 222.148438 205.828125 222.980469 206.050781 223.476562 206.496094 C 223.976562 206.949219 224.222656 207.648438 224.222656 208.597656 C 224.222656 209.0625 224.164062 209.625 224.046875 210.285156 C 223.773438 211.839844 223.300781 212.976562 222.617188 213.6875 C 221.9375 214.402344 220.867188 214.757812 219.410156 214.757812 C 218.265625 214.757812 217.449219 214.535156 216.960938 214.085938 C 216.476562 213.636719 216.230469 212.941406 216.230469 212.003906 C 216.230469 211.515625 216.292969 210.945312 216.410156 210.285156 C 216.679688 208.726562 217.152344 207.597656 217.820312 206.886719 C 218.492188 206.179688 219.542969 205.828125 220.980469 205.828125 Z M 218.921875 212.292969 L 219.878906 212.292969 C 220.191406 212.292969 220.425781 212.257812 220.582031 212.179688 C 220.742188 212.105469 220.847656 211.9375 220.902344 211.679688 L 221.515625 208.289062 L 220.527344 208.289062 C 220.226562 208.289062 219.988281 208.328125 219.820312 208.402344 C 219.65625 208.480469 219.554688 208.640625 219.523438 208.890625 Z M 209.375 210.65625 L 215.84375 210.65625 C 215.800781 210.992188 215.773438 211.21875 215.761719 211.339844 Z M 209.667969 209.101562 L 216.152344 209.101562 L 216.003906 209.78125 Z M 209.441406 212.214844 L 215.746094 212.214844 C 215.746094 212.386719 215.765625 212.613281 215.8125 212.894531 Z M 210.316406 207.546875 L 216.71875 207.546875 C 216.589844 207.824219 216.496094 208.042969 216.441406 208.195312 Z M 210.851562 213.785156 L 216.085938 213.785156 C 216.214844 214.046875 216.355469 214.246094 216.507812 214.386719 Z M 212.488281 205.988281 L 218.128906 205.988281 C 217.871094 206.140625 217.648438 206.320312 217.464844 206.523438 Z M 235.570312 214.5625 L 233.367188 214.5625 L 231.695312 211.355469 L 231.628906 211.355469 L 231.0625 214.5625 L 228.339844 214.5625 L 229.832031 205.988281 L 232.035156 205.988281 L 233.722656 209.183594 L 233.816406 209.183594 L 234.371094 205.988281 L 237.078125 205.988281 Z M 227.9375 213.785156 L 227.804688 214.515625 L 220.929688 213.785156 Z M 228.488281 210.65625 L 228.355469 211.386719 L 221.484375 210.65625 Z M 228.761719 209.101562 L 228.628906 209.832031 L 221.757812 209.101562 Z M 229.035156 207.546875 L 228.910156 208.273438 L 222.035156 207.546875 Z M 229.296875 205.988281 L 229.183594 206.71875 L 222.308594 205.988281 Z M 228.210938 212.214844 L 228.082031 212.941406 L 221.207031 212.214844 Z M 242.878906 210.65625 L 242.75 211.386719 L 237.496094 210.65625 Z M 243.152344 209.101562 L 243.023438 209.832031 L 237.773438 209.101562 Z M 253.269531 208.386719 L 252.832031 210.804688 L 250.207031 210.804688 L 249.558594 214.5625 L 246.476562 214.5625 L 248.261719 204.433594 L 254.582031 204.433594 L 253.722656 207.027344 L 250.871094 207.027344 L 250.644531 208.386719 Z M 246.121094 213.785156 L 245.992188 214.515625 L 239.117188 213.785156 Z M 246.671875 210.65625 L 246.542969 211.386719 L 239.667969 210.65625 Z M 246.945312 209.101562 L 246.816406 209.832031 L 239.945312 209.101562 Z M 247.222656 207.546875 L 247.09375 208.273438 L 240.21875 207.546875 Z M 247.480469 205.988281 L 247.367188 206.71875 L 240.496094 205.988281 Z M 246.394531 212.214844 L 246.265625 212.941406 L 239.394531 212.214844 Z M 247.757812 204.433594 L 247.628906 205.160156 L 240.769531 204.433594 Z M 257.417969 210.65625 L 257.289062 211.386719 L 250.414062 210.65625 Z M 257.695312 209.101562 L 257.566406 209.832031 L 250.691406 209.101562 Z M 257.96875 207.546875 L 257.839844 208.273438 L 250.96875 207.546875 Z M 258.230469 205.988281 L 258.117188 206.71875 L 251.242188 205.988281 Z M 250.367188 212.214844 L 257.222656 212.214844 L 257.222656 212.539062 C 257.222656 212.722656 257.230469 212.855469 257.242188 212.941406 Z M 257.855469 214.515625 L 250.984375 213.785156 L 257.386719 213.785156 C 257.503906 214.089844 257.660156 214.332031 257.855469 214.515625 Z M 260.367188 212.292969 L 261.179688 212.292969 C 261.472656 212.292969 261.671875 212.257812 261.785156 212.1875 C 261.898438 212.117188 261.980469 211.949219 262.023438 211.679688 L 263.042969 205.988281 L 265.765625 205.988281 L 264.925781 210.820312 C 264.664062 212.332031 264.246094 213.367188 263.667969 213.921875 C 263.089844 214.480469 262.101562 214.757812 260.710938 214.757812 C 259.597656 214.757812 258.816406 214.59375 258.375 214.261719 C 257.933594 213.933594 257.710938 213.359375 257.710938 212.539062 C 257.710938 212.082031 257.769531 211.511719 257.890625 210.820312 L 258.746094 205.988281 L 261.472656 205.988281 Z M 276.289062 214.5625 L 274.082031 214.5625 L 272.414062 211.355469 L 272.347656 211.355469 L 271.78125 214.5625 L 269.054688 214.5625 L 270.550781 205.988281 L 272.753906 205.988281 L 274.4375 209.183594 L 274.535156 209.183594 L 275.085938 205.988281 L 277.792969 205.988281 Z M 268.648438 213.785156 L 268.523438 214.515625 L 261.648438 213.785156 Z M 269.203125 210.65625 L 269.074219 211.386719 L 262.199219 210.65625 Z M 269.480469 209.101562 L 269.347656 209.832031 L 262.476562 209.101562 Z M 269.753906 207.546875 L 269.621094 208.273438 L 262.75 207.546875 Z M 270.015625 205.988281 L 269.902344 206.71875 L 263.027344 205.988281 Z M 268.929688 212.214844 L 268.796875 212.941406 L 261.921875 212.214844 Z M 288.832031 209.523438 L 288.019531 214.109375 C 286.917969 214.542969 285.792969 214.757812 284.648438 214.757812 C 283.503906 214.757812 282.6875 214.535156 282.199219 214.085938 C 281.714844 213.636719 281.472656 212.941406 281.472656 212.003906 C 281.472656 211.539062 281.546875 210.875 281.699219 210.007812 C 281.847656 209.144531 282.082031 208.402344 282.394531 207.789062 C 283.074219 206.480469 284.453125 205.828125 286.527344 205.828125 C 287.738281 205.828125 288.582031 205.945312 289.058594 206.183594 L 288.230469 208.4375 C 287.550781 208.285156 286.9375 208.210938 286.390625 208.210938 C 285.847656 208.210938 285.457031 208.246094 285.230469 208.324219 C 285.003906 208.398438 284.871094 208.542969 284.828125 208.761719 L 284.144531 212.488281 L 284.890625 212.488281 C 285.160156 212.488281 285.371094 212.457031 285.515625 212.398438 C 285.660156 212.339844 285.75 212.207031 285.78125 212.003906 L 285.898438 211.371094 L 285.230469 211.371094 L 285.554688 209.523438 Z M 274.613281 210.65625 L 281.082031 210.65625 C 281.039062 210.992188 281.011719 211.21875 281 211.339844 Z M 274.90625 209.101562 L 281.390625 209.101562 L 281.246094 209.78125 Z M 274.679688 212.214844 L 280.984375 212.214844 C 280.984375 212.386719 281.007812 212.613281 281.050781 212.894531 Z M 275.554688 207.546875 L 281.957031 207.546875 C 281.828125 207.824219 281.734375 208.042969 281.683594 208.195312 Z M 276.089844 213.785156 L 281.324219 213.785156 C 281.453125 214.046875 281.59375 214.246094 281.746094 214.386719 Z M 277.726562 205.988281 L 283.367188 205.988281 C 283.109375 206.140625 282.886719 206.320312 282.703125 206.523438 Z M 295.640625 214.5625 L 292.800781 214.5625 L 294.292969 205.988281 L 297.144531 205.988281 Z M 292.398438 213.785156 L 292.265625 214.515625 L 285.394531 213.785156 Z M 292.949219 210.65625 L 292.816406 211.386719 L 285.945312 210.65625 Z M 293.222656 209.101562 L 293.09375 209.832031 L 286.222656 209.101562 Z M 293.5 207.546875 L 293.371094 208.273438 L 286.496094 207.546875 Z M 293.757812 205.988281 L 293.644531 206.71875 L 286.773438 205.988281 Z M 292.671875 212.214844 L 292.542969 212.941406 L 285.667969 212.214844 Z M 302.21875 205.988281 L 306.597656 205.988281 C 307.828125 205.988281 308.445312 206.496094 308.445312 207.511719 C 308.445312 208.074219 308.3125 208.582031 308.046875 209.035156 C 307.78125 209.488281 307.460938 209.804688 307.082031 209.976562 L 307.066406 210.074219 C 307.78125 210.300781 308.136719 210.792969 308.136719 211.550781 C 308.136719 212.5 307.878906 213.238281 307.363281 213.769531 C 306.851562 214.300781 306.078125 214.5625 305.039062 214.5625 L 300.730469 214.5625 Z M 305.039062 211.242188 L 304.035156 211.242188 L 303.824219 212.441406 L 304.828125 212.441406 C 305.207031 212.441406 305.398438 212.164062 305.398438 211.613281 C 305.398438 211.363281 305.277344 211.242188 305.039062 211.242188 Z M 305.460938 208.046875 L 304.585938 208.046875 L 304.410156 209.085938 L 305.300781 209.085938 C 305.625 209.085938 305.785156 208.847656 305.785156 208.371094 C 305.785156 208.15625 305.679688 208.046875 305.460938 208.046875 Z M 300.339844 213.785156 L 300.210938 214.515625 L 293.335938 213.785156 Z M 300.890625 210.65625 L 300.761719 211.386719 L 293.886719 210.65625 Z M 301.167969 209.101562 L 301.035156 209.832031 L 294.164062 209.101562 Z M 301.441406 207.546875 L 301.3125 208.273438 L 294.4375 207.546875 Z M 301.703125 205.988281 L 301.589844 206.71875 L 294.714844 205.988281 Z M 300.617188 212.214844 L 300.484375 212.941406 L 293.613281 212.214844 Z M 317.992188 212.179688 L 317.570312 214.5625 L 312.304688 214.5625 L 313.792969 205.988281 L 316.648438 205.988281 L 315.5625 212.179688 Z M 311.898438 213.785156 L 311.769531 214.515625 L 304.894531 213.785156 Z M 312.449219 210.65625 L 312.320312 211.386719 L 305.445312 210.65625 Z M 312.722656 209.101562 L 312.59375 209.832031 L 305.722656 209.101562 Z M 313 207.546875 L 312.871094 208.273438 L 305.996094 207.546875 Z M 313.257812 205.988281 L 313.144531 206.71875 L 306.273438 205.988281 Z M 312.171875 212.214844 L 312.042969 212.941406 L 305.171875 212.214844 Z M 327.519531 209.523438 L 327.246094 211.078125 L 324.828125 211.078125 L 324.636719 212.179688 L 327.632812 212.179688 L 327.210938 214.5625 L 321.492188 214.5625 L 322.980469 205.988281 L 328.6875 205.988281 L 327.925781 208.421875 L 325.285156 208.421875 L 325.089844 209.523438 Z M 321.085938 213.785156 L 320.957031 214.515625 L 314.082031 213.785156 Z M 321.636719 210.65625 L 321.507812 211.386719 L 314.632812 210.65625 Z M 321.910156 209.101562 L 321.78125 209.832031 L 314.910156 209.101562 Z M 322.1875 207.546875 L 322.058594 208.273438 L 315.183594 207.546875 Z M 322.445312 205.988281 L 322.332031 206.71875 L 315.460938 205.988281 Z M 321.359375 212.214844 L 321.230469 212.941406 L 314.359375 212.214844 Z M 335.011719 213.785156 L 334.847656 214.515625 L 328.007812 213.785156 Z M 335.382812 212.214844 L 335.203125 212.941406 L 328.378906 212.214844 Z M 335.738281 210.65625 L 335.578125 211.386719 L 328.753906 210.65625 Z M 336.113281 209.101562 L 335.933594 209.832031 L 329.125 209.101562 Z M 336.46875 207.546875 L 336.304688 208.273438 L 329.5 207.546875 Z M 336.839844 205.988281 L 336.664062 206.71875 L 329.871094 205.988281 Z M 337.199219 204.433594 L 337.035156 205.160156 L 330.242188 204.433594 Z M 339.597656 209.652344 L 338.542969 214.5625 L 335.335938 214.5625 L 337.699219 204.433594 L 341.722656 204.433594 L 342.011719 209.585938 L 342.125 209.585938 L 344.234375 204.433594 L 348.253906 204.433594 L 347.054688 214.5625 L 343.828125 214.5625 L 344.507812 209.652344 L 344.394531 209.652344 L 342.371094 214.5625 L 340.019531 214.5625 L 339.679688 209.652344 Z M 354.785156 214.5625 L 351.949219 214.5625 L 353.441406 205.988281 L 356.292969 205.988281 Z M 351.542969 213.785156 L 351.414062 214.515625 L 344.542969 213.785156 Z M 352.09375 210.65625 L 351.964844 211.386719 L 345.09375 210.65625 Z M 352.371094 209.101562 L 352.242188 209.832031 L 345.367188 209.101562 Z M 352.644531 207.546875 L 352.515625 208.273438 L 345.644531 207.546875 Z M 352.90625 205.988281 L 352.792969 206.71875 L 345.917969 205.988281 Z M 351.820312 212.214844 L 351.691406 212.941406 L 344.816406 212.214844 Z M 367.101562 214.5625 L 364.898438 214.5625 L 363.226562 211.355469 L 363.164062 211.355469 L 362.597656 214.5625 L 359.871094 214.5625 L 361.363281 205.988281 L 363.570312 205.988281 L 365.253906 209.183594 L 365.351562 209.183594 L 365.902344 205.988281 L 368.609375 205.988281 Z M 359.46875 213.785156 L 359.339844 214.515625 L 352.464844 213.785156 Z M 360.019531 210.65625 L 359.890625 211.386719 L 353.015625 210.65625 Z M 360.292969 209.101562 L 360.164062 209.832031 L 353.292969 209.101562 Z M 360.570312 207.546875 L 360.441406 208.273438 L 353.566406 207.546875 Z M 360.828125 205.988281 L 360.714844 206.71875 L 353.84375 205.988281 Z M 359.742188 212.214844 L 359.613281 212.941406 L 352.742188 212.214844 Z M 373.828125 205.988281 L 377.476562 205.988281 C 378.65625 205.988281 379.496094 206.199219 380.003906 206.621094 C 380.515625 207.042969 380.769531 207.71875 380.769531 208.648438 C 380.769531 209.089844 380.707031 209.636719 380.589844 210.285156 C 380.320312 211.820312 379.851562 212.914062 379.1875 213.574219 C 378.523438 214.234375 377.449219 214.5625 375.96875 214.5625 L 372.339844 214.5625 Z M 377.089844 208.355469 L 376.148438 208.355469 L 375.46875 212.246094 L 376.40625 212.246094 C 376.71875 212.246094 376.960938 212.203125 377.125 212.121094 C 377.296875 212.042969 377.402344 211.878906 377.445312 211.628906 L 377.914062 208.957031 C 377.925781 208.910156 377.929688 208.824219 377.929688 208.695312 C 377.929688 208.46875 377.648438 208.355469 377.089844 208.355469 Z M 371.933594 213.785156 L 371.804688 214.515625 L 364.929688 213.785156 Z M 372.484375 210.65625 L 372.355469 211.386719 L 365.480469 210.65625 Z M 372.761719 209.101562 L 372.628906 209.832031 L 365.757812 209.101562 Z M 373.035156 207.546875 L 372.90625 208.273438 L 366.03125 207.546875 Z M 373.292969 205.988281 L 373.179688 206.71875 L 366.308594 205.988281 Z M 372.207031 212.214844 L 372.078125 212.941406 L 365.207031 212.214844 Z M 372.207031 212.214844 "/>
</g>
<path style=" stroke:none;fill-rule:nonzero;fill:rgb(100%,100%,100%);fill-opacity:1;" d="M 427.457031 205.292969 L 427.457031 179.265625 C 427.457031 178.59375 427.074219 178.046875 426.597656 178.046875 L 408.234375 178.046875 C 407.761719 178.046875 407.375 178.59375 407.375 179.265625 L 407.375 205.292969 C 407.375 205.964844 407.761719 206.511719 408.234375 206.511719 L 426.597656 206.511719 C 427.074219 206.511719 427.457031 205.96875 427.457031 205.292969 Z M 427.457031 205.292969 "/>
<path style=" stroke:none;fill-rule:nonzero;fill:rgb(100%,100%,100%);fill-opacity:1;" d="M 414.351562 169.277344 L 414.351562 172.488281 C 413.355469 172.667969 412.601562 173.53125 412.601562 174.578125 C 412.601562 175.753906 413.550781 176.707031 414.726562 176.707031 C 415.902344 176.707031 416.855469 175.753906 416.855469 174.578125 C 416.855469 173.53125 416.097656 172.667969 415.101562 172.488281 L 415.101562 168.898438 C 415.101562 168.691406 414.933594 168.523438 414.726562 168.523438 L 407.710938 168.523438 C 407.523438 167.003906 406.242188 165.820312 404.671875 165.820312 C 402.972656 165.820312 401.59375 167.203125 401.59375 168.898438 C 401.59375 170.597656 402.972656 171.980469 404.671875 171.980469 C 406.242188 171.980469 407.523438 170.792969 407.710938 169.277344 Z M 404.671875 171.230469 C 403.386719 171.230469 402.34375 170.183594 402.34375 168.902344 C 402.34375 167.617188 403.386719 166.574219 404.671875 166.574219 C 405.957031 166.574219 407 167.617188 407 168.902344 C 407 170.183594 405.953125 171.230469 404.671875 171.230469 Z M 404.671875 171.230469 "/>
<g clip-path="url(#clip4)" clip-rule="nonzero">
<path style=" stroke:none;fill-rule:nonzero;fill:rgb(100%,100%,100%);fill-opacity:1;" d="M 420.359375 167.113281 L 420.359375 172.488281 C 419.363281 172.667969 418.605469 173.53125 418.605469 174.578125 C 418.605469 175.753906 419.558594 176.707031 420.730469 176.707031 C 421.90625 176.707031 422.859375 175.753906 422.859375 174.578125 C 422.859375 173.53125 422.101562 172.667969 421.105469 172.488281 L 421.105469 167.113281 C 422.625 166.925781 423.8125 165.640625 423.8125 164.070312 C 423.8125 162.375 422.429688 160.992188 420.730469 160.992188 C 419.035156 160.992188 417.652344 162.375 417.652344 164.070312 C 417.652344 165.640625 418.839844 166.921875 420.359375 167.113281 Z M 420.730469 161.742188 C 422.015625 161.742188 423.0625 162.785156 423.0625 164.070312 C 423.0625 165.355469 422.015625 166.398438 420.730469 166.398438 C 419.449219 166.398438 418.40625 165.355469 418.40625 164.070312 C 418.40625 162.785156 419.449219 161.742188 420.730469 161.742188 Z M 420.730469 161.742188 "/>
</g>
<path style=" stroke:none;fill-rule:nonzero;fill:rgb(100%,100%,100%);fill-opacity:1;" d="M 429.816406 212.394531 C 428.246094 212.394531 426.964844 213.578125 426.777344 215.097656 L 420.132812 215.097656 L 420.132812 211.882812 C 421.128906 211.707031 421.886719 210.839844 421.886719 209.792969 C 421.886719 208.621094 420.933594 207.667969 419.757812 207.667969 C 418.585938 207.667969 417.632812 208.621094 417.632812 209.792969 C 417.632812 210.839844 418.390625 211.707031 419.382812 211.882812 L 419.382812 215.472656 C 419.382812 215.679688 419.550781 215.847656 419.757812 215.847656 L 426.773438 215.847656 C 426.964844 217.367188 428.246094 218.550781 429.816406 218.550781 C 431.511719 218.550781 432.894531 217.171875 432.894531 215.472656 C 432.894531 213.773438 431.515625 212.394531 429.816406 212.394531 Z M 429.816406 217.800781 C 428.53125 217.800781 427.488281 216.757812 427.488281 215.472656 C 427.488281 214.1875 428.53125 213.144531 429.816406 213.144531 C 431.101562 213.144531 432.144531 214.1875 432.144531 215.472656 C 432.144531 216.753906 431.101562 217.800781 429.816406 217.800781 Z M 429.816406 217.800781 "/>
<g clip-path="url(#clip5)" clip-rule="nonzero">
<path style=" stroke:none;fill-rule:nonzero;fill:rgb(100%,100%,100%);fill-opacity:1;" d="M 414.128906 217.261719 L 414.128906 211.882812 C 415.125 211.707031 415.882812 210.839844 415.882812 209.792969 C 415.882812 208.621094 414.929688 207.667969 413.753906 207.667969 C 412.582031 207.667969 411.628906 208.621094 411.628906 209.792969 C 411.628906 210.839844 412.382812 211.707031 413.378906 211.882812 L 413.378906 217.261719 C 411.859375 217.449219 410.675781 218.734375 410.675781 220.300781 C 410.675781 222 412.058594 223.382812 413.753906 223.382812 C 415.449219 223.382812 416.832031 222 416.832031 220.300781 C 416.835938 218.734375 415.648438 217.449219 414.128906 217.261719 Z M 413.753906 222.628906 C 412.472656 222.628906 411.425781 221.585938 411.425781 220.300781 C 411.425781 219.019531 412.472656 217.972656 413.753906 217.972656 C 415.039062 217.972656 416.082031 219.019531 416.082031 220.300781 C 416.082031 221.585938 415.039062 222.628906 413.753906 222.628906 Z M 413.753906 222.628906 "/>
</g>
<path style=" stroke:none;fill-rule:nonzero;fill:rgb(100%,100%,100%);fill-opacity:1;" d="M 431.300781 185.398438 C 432.347656 185.398438 433.214844 184.644531 433.390625 183.648438 L 439.371094 183.648438 C 439.578125 183.648438 439.746094 183.480469 439.746094 183.273438 L 439.746094 178.597656 L 439.695312 178.597656 C 441.34375 178.539062 442.667969 177.191406 442.667969 175.53125 C 442.667969 173.832031 441.285156 172.453125 439.589844 172.453125 C 437.890625 172.453125 436.507812 173.832031 436.507812 175.53125 C 436.507812 177.191406 437.832031 178.539062 439.480469 178.597656 L 438.996094 178.597656 L 438.996094 182.898438 L 433.390625 182.898438 C 433.214844 181.902344 432.351562 181.144531 431.304688 181.144531 C 430.128906 181.144531 429.175781 182.097656 429.175781 183.273438 C 429.175781 184.449219 430.128906 185.398438 431.300781 185.398438 Z M 437.261719 175.53125 C 437.261719 174.246094 438.304688 173.203125 439.585938 173.203125 C 440.871094 173.203125 441.917969 174.246094 441.917969 175.53125 C 441.917969 176.816406 440.871094 177.859375 439.585938 177.859375 C 438.304688 177.859375 437.261719 176.816406 437.261719 175.53125 Z M 437.261719 175.53125 "/>
<g clip-path="url(#clip6)" clip-rule="nonzero">
<path style=" stroke:none;fill-rule:nonzero;fill:rgb(100%,100%,100%);fill-opacity:1;" d="M 444.695312 199.589844 L 444.695312 195.113281 C 444.695312 194.90625 444.527344 194.738281 444.316406 194.738281 L 433.351562 194.738281 C 433.109375 193.828125 432.285156 193.15625 431.304688 193.15625 C 430.128906 193.15625 429.175781 194.109375 429.175781 195.28125 C 429.175781 196.457031 430.128906 197.410156 431.304688 197.410156 C 432.40625 197.410156 433.304688 196.566406 433.410156 195.488281 L 443.941406 195.488281 L 443.941406 199.589844 C 442.425781 199.777344 441.238281 201.0625 441.238281 202.628906 C 441.238281 204.328125 442.621094 205.707031 444.316406 205.707031 C 446.015625 205.707031 447.398438 204.328125 447.398438 202.628906 C 447.398438 201.0625 446.210938 199.777344 444.695312 199.589844 Z M 444.316406 204.957031 C 443.035156 204.957031 441.992188 203.914062 441.992188 202.628906 C 441.992188 201.34375 443.035156 200.300781 444.316406 200.300781 C 445.601562 200.300781 446.648438 201.34375 446.648438 202.628906 C 446.648438 203.914062 445.601562 204.957031 444.316406 204.957031 Z M 444.316406 204.957031 "/>
</g>
<path style=" stroke:none;fill-rule:nonzero;fill:rgb(100%,100%,100%);fill-opacity:1;" d="M 431.300781 191.402344 C 432.347656 191.402344 433.214844 190.648438 433.390625 189.652344 L 436.519531 189.652344 C 436.707031 191.171875 437.992188 192.355469 439.558594 192.355469 C 441.257812 192.355469 442.636719 190.976562 442.636719 189.277344 C 442.636719 187.582031 441.257812 186.199219 439.558594 186.199219 C 437.988281 186.199219 436.707031 187.382812 436.519531 188.902344 L 433.390625 188.902344 C 433.214844 187.90625 432.347656 187.148438 431.300781 187.148438 C 430.128906 187.148438 429.175781 188.101562 429.175781 189.277344 C 429.175781 190.453125 430.128906 191.402344 431.300781 191.402344 Z M 439.558594 186.949219 C 440.84375 186.949219 441.886719 187.992188 441.886719 189.277344 C 441.886719 190.5625 440.84375 191.605469 439.558594 191.605469 C 438.273438 191.605469 437.230469 190.5625 437.230469 189.277344 C 437.230469 187.992188 438.273438 186.949219 439.558594 186.949219 Z M 439.558594 186.949219 "/>
<path style=" stroke:none;fill-rule:nonzero;fill:rgb(100%,100%,100%);fill-opacity:1;" d="M 437.308594 198.207031 C 435.738281 198.207031 434.457031 199.394531 434.265625 200.910156 L 433.390625 200.910156 C 433.214844 199.917969 432.347656 199.160156 431.300781 199.160156 C 430.128906 199.160156 429.175781 200.113281 429.175781 201.285156 C 429.175781 202.460938 430.128906 203.414062 431.300781 203.414062 C 432.347656 203.414062 433.214844 202.65625 433.390625 201.660156 L 434.265625 201.660156 C 434.453125 203.179688 435.738281 204.367188 437.308594 204.367188 C 439.003906 204.367188 440.386719 202.984375 440.386719 201.285156 C 440.386719 199.589844 439.003906 198.207031 437.308594 198.207031 Z M 437.308594 203.617188 C 436.023438 203.617188 434.980469 202.570312 434.980469 201.289062 C 434.980469 200.003906 436.023438 198.957031 437.308594 198.957031 C 438.589844 198.957031 439.636719 200.003906 439.636719 201.289062 C 439.636719 202.570312 438.589844 203.617188 437.308594 203.617188 Z M 437.308594 203.617188 "/>
<path style=" stroke:none;fill-rule:nonzero;fill:rgb(100%,100%,100%);fill-opacity:1;" d="M 403.519531 181.144531 C 402.472656 181.144531 401.609375 181.902344 401.429688 182.898438 L 395.824219 182.898438 L 395.824219 178.597656 L 395.339844 178.597656 C 396.988281 178.539062 398.3125 177.191406 398.3125 175.53125 C 398.3125 173.835938 396.929688 172.453125 395.234375 172.453125 C 393.535156 172.453125 392.15625 173.835938 392.15625 175.53125 C 392.15625 177.191406 393.476562 178.539062 395.125 178.597656 L 395.074219 178.597656 L 395.074219 183.273438 C 395.074219 183.480469 395.242188 183.648438 395.449219 183.648438 L 401.429688 183.648438 C 401.609375 184.644531 402.472656 185.398438 403.519531 185.398438 C 404.695312 185.398438 405.648438 184.449219 405.648438 183.273438 C 405.648438 182.097656 404.695312 181.144531 403.519531 181.144531 Z M 392.90625 175.53125 C 392.90625 174.246094 393.949219 173.203125 395.234375 173.203125 C 396.515625 173.203125 397.5625 174.246094 397.5625 175.53125 C 397.5625 176.816406 396.515625 177.859375 395.234375 177.859375 C 393.949219 177.859375 392.90625 176.816406 392.90625 175.53125 Z M 392.90625 175.53125 "/>
<g clip-path="url(#clip7)" clip-rule="nonzero">
<path style=" stroke:none;fill-rule:nonzero;fill:rgb(100%,100%,100%);fill-opacity:1;" d="M 403.519531 193.15625 C 402.535156 193.15625 401.714844 193.828125 401.472656 194.738281 L 390.503906 194.738281 C 390.296875 194.738281 390.125 194.90625 390.125 195.113281 L 390.125 199.589844 C 388.609375 199.777344 387.425781 201.0625 387.425781 202.628906 C 387.425781 204.328125 388.804688 205.707031 390.503906 205.707031 C 392.199219 205.707031 393.582031 204.328125 393.582031 202.628906 C 393.582031 201.058594 392.398438 199.777344 390.878906 199.589844 L 390.878906 195.488281 L 401.414062 195.488281 C 401.515625 196.5625 402.414062 197.410156 403.519531 197.410156 C 404.691406 197.410156 405.644531 196.457031 405.644531 195.28125 C 405.644531 194.105469 404.695312 193.15625 403.519531 193.15625 Z M 392.832031 202.628906 C 392.832031 203.914062 391.785156 204.957031 390.503906 204.957031 C 389.21875 204.957031 388.171875 203.914062 388.171875 202.628906 C 388.171875 201.34375 389.21875 200.300781 390.503906 200.300781 C 391.785156 200.300781 392.832031 201.347656 392.832031 202.628906 Z M 392.832031 202.628906 "/>
</g>
<path style=" stroke:none;fill-rule:nonzero;fill:rgb(100%,100%,100%);fill-opacity:1;" d="M 403.519531 187.152344 C 402.472656 187.152344 401.609375 187.90625 401.429688 188.902344 L 398.300781 188.902344 C 398.113281 187.382812 396.828125 186.199219 395.261719 186.199219 C 393.5625 186.199219 392.183594 187.582031 392.183594 189.277344 C 392.183594 190.976562 393.5625 192.355469 395.261719 192.355469 C 396.832031 192.355469 398.113281 191.171875 398.300781 189.652344 L 401.429688 189.652344 C 401.605469 190.648438 402.472656 191.40625 403.519531 191.40625 C 404.691406 191.40625 405.644531 190.453125 405.644531 189.277344 C 405.644531 188.101562 404.691406 187.152344 403.519531 187.152344 Z M 395.261719 191.605469 C 393.976562 191.605469 392.933594 190.5625 392.933594 189.277344 C 392.933594 187.992188 393.976562 186.949219 395.261719 186.949219 C 396.546875 186.949219 397.589844 187.992188 397.589844 189.277344 C 397.589844 190.5625 396.546875 191.605469 395.261719 191.605469 Z M 395.261719 191.605469 "/>
<path style=" stroke:none;fill-rule:nonzero;fill:rgb(100%,100%,100%);fill-opacity:1;" d="M 403.519531 199.160156 C 402.472656 199.160156 401.609375 199.917969 401.429688 200.910156 L 400.554688 200.910156 C 400.367188 199.394531 399.082031 198.207031 397.511719 198.207031 C 395.816406 198.207031 394.433594 199.589844 394.433594 201.289062 C 394.433594 202.984375 395.816406 204.367188 397.511719 204.367188 C 399.082031 204.367188 400.367188 203.183594 400.554688 201.664062 L 401.429688 201.664062 C 401.605469 202.65625 402.472656 203.414062 403.519531 203.414062 C 404.691406 203.414062 405.644531 202.464844 405.644531 201.289062 C 405.644531 200.113281 404.691406 199.160156 403.519531 199.160156 Z M 397.511719 203.617188 C 396.230469 203.617188 395.1875 202.570312 395.1875 201.289062 C 395.1875 200.003906 396.230469 198.957031 397.511719 198.957031 C 398.796875 198.957031 399.84375 200.003906 399.84375 201.289062 C 399.84375 202.570312 398.796875 203.617188 397.511719 203.617188 Z M 397.511719 203.617188 "/>
</g>
</svg>
