<svg xmlns="http://www.w3.org/2000/svg" version="1.1" xmlns:xlink="http://www.w3.org/1999/xlink" xmlns:svgjs="http://svgjs.dev/svgjs" width="2000" height="1500" viewBox="0 0 2000 1500"><rect width="2000" height="1500" fill="#030303"></rect><g transform="matrix(0.75,0,0,0.75,249.090909090909,629.6034505510961)"><svg viewBox="0 0 396 64" data-background-color="#030303" preserveAspectRatio="xMidYMid meet" height="323" width="2000" xmlns="http://www.w3.org/2000/svg" xmlns:xlink="http://www.w3.org/1999/xlink"><defs></defs><g id="tight-bounds" transform="matrix(1,0,0,1,0.24000000000003752,-0.1924492684010204)"><svg viewBox="0 0 395.5199999999999 64.38489770787642" height="64.38489770787642" width="395.5199999999999"><g><svg viewBox="0 0 478.7403101587308 77.93195261480308" height="64.38489770787642" width="395.5199999999999"><g transform="matrix(1,0,0,1,0,10.770624420714466)"><svg viewBox="0 0 395.52 56.39070377337415" height="56.39070377337415" width="395.52"><g><svg viewBox="0 0 395.52 56.39070377337415" height="56.39070377337415" width="395.52"><g><svg viewBox="0 0 395.52 35.18587012987013" height="35.18587012987013" width="395.52"><g transform="matrix(1,0,0,1,0,0)"><svg width="395.52" viewBox="-0.10000000149011612 -33.45000076293945 376.0500183105469 33.45000076293945" height="35.18587012987013" data-palette-color="#fefefe"><g class="undefined-text-0" data-fill-palette-color="primary" id="text-0"><path d="M20.75-30.91L17.9-31.25 12.01-31.25 9.5-30.96 7.96-29.39 7.59-27.34 7.59-14.94 7.96-12.89 9.55-11.35 12.01-11.06 17.9-11.06 20.75-11.4 20.14-14.04 17.85-13.65 12.16-13.65 10.55-13.89 10.21-15.36 10.21-27.1 10.45-28.44 12.16-28.71 17.75-28.71 20.26-28.3 20.75-30.91ZM10.69-33.45L18.21-33.45Q20.68-33.45 22.68-32.71 24.68-31.98 26.09-30.71 27.49-29.44 28.25-27.75 29-26.05 29-24.15L29-24.15 29-9.3Q29-7.4 28.25-5.7 27.49-4 26.09-2.73 24.68-1.46 22.68-0.73 20.68 0 18.21 0L18.21 0 10.69 0Q8.23 0 6.23-0.73 4.22-1.46 2.82-2.73 1.42-4 0.66-5.7-0.1-7.4-0.1-9.3L-0.1-9.3-0.1-24.15Q-0.1-26.05 0.66-27.75 1.42-29.44 2.82-30.71 4.22-31.98 6.23-32.71 8.23-33.45 10.69-33.45L10.69-33.45ZM39.6-33.45L47.12-33.45Q49.58-33.45 51.58-32.71 53.59-31.98 54.99-30.71 56.39-29.44 57.15-27.75 57.91-26.05 57.91-24.15L57.91-24.15 57.91-9.3Q57.91-7.4 57.15-5.7 56.39-4 54.99-2.73 53.59-1.46 51.58-0.73 49.58 0 47.12 0L47.12 0 39.6 0Q37.13 0 35.13-0.73 33.13-1.46 31.72-2.73 30.32-4 29.56-5.7 28.81-7.4 28.81-9.3L28.81-9.3 28.81-24.15Q28.81-26.05 29.56-27.75 30.32-29.44 31.72-30.71 33.13-31.98 35.13-32.71 37.13-33.45 39.6-33.45L39.6-33.45ZM48-18.41L48.36-17.09 48.36-11.06 50.95-11.06 50.95-17.36 50.1-19.6 47.31-20.61 50-21.9 50.75-24.1 50.75-26.81 50.46-28.86 48.85-30.91 46.41-31.25 37.3-31.25 37.3-11.06 39.91-11.06 39.91-19.19 46.26-19.19 48-18.41ZM39.91-28.66L46.26-28.66 48-27.91 48.17-26.49 48.17-23.9 47.8-22.56 46.26-21.8 39.91-21.8 39.91-28.66ZM79.9-11.06L79.9-13.65 70.16-13.65 70.16-19.85 78.32-19.85 78.32-22.41 70.16-22.41 70.16-28.66 79.56-28.66 79.56-31.25 67.62-31.25 67.62-11.06 79.9-11.06ZM68.5-33.45L76.02-33.45Q78.49-33.45 80.49-32.71 82.49-31.98 83.89-30.71 85.3-29.44 86.05-27.75 86.81-26.05 86.81-24.15L86.81-24.15 86.81-9.3Q86.81-7.4 86.05-5.7 85.3-4 83.89-2.73 82.49-1.46 80.49-0.73 78.49 0 76.02 0L76.02 0 68.5 0Q66.04 0 64.03-0.73 62.03-1.46 60.63-2.73 59.22-4 58.47-5.7 57.71-7.4 57.71-9.3L57.71-9.3 57.71-24.15Q57.71-26.05 58.47-27.75 59.22-29.44 60.63-30.71 62.03-31.98 64.03-32.71 66.04-33.45 68.5-33.45L68.5-33.45ZM107.76-11.06L107.76-13.65 100.26-13.65 100.26-31.25 97.67-31.25 97.67-11.06 107.76-11.06ZM97.4-33.45L104.92-33.45Q107.39-33.45 109.39-32.71 111.39-31.98 112.8-30.71 114.2-29.44 114.96-27.75 115.72-26.05 115.72-24.15L115.72-24.15 115.72-9.3Q115.72-7.4 114.96-5.7 114.2-4 112.8-2.73 111.39-1.46 109.39-0.73 107.39 0 104.92 0L104.92 0 97.4 0Q94.94 0 92.94-0.73 90.93-1.46 89.53-2.73 88.13-4 87.37-5.7 86.61-7.4 86.61-9.3L86.61-9.3 86.61-24.15Q86.61-26.05 87.37-27.75 88.13-29.44 89.53-30.71 90.93-31.98 92.94-32.71 94.94-33.45 97.4-33.45L97.4-33.45ZM126.31-33.45L133.83-33.45Q136.29-33.45 138.3-32.71 140.3-31.98 141.7-30.71 143.11-29.44 143.86-27.75 144.62-26.05 144.62-24.15L144.62-24.15 144.62-9.3Q144.62-7.4 143.86-5.7 143.11-4 141.7-2.73 140.3-1.46 138.3-0.73 136.29 0 133.83 0L133.83 0 126.31 0Q123.84 0 121.84-0.73 119.84-1.46 118.43-2.73 117.03-4 116.27-5.7 115.52-7.4 115.52-9.3L115.52-9.3 115.52-24.15Q115.52-26.05 116.27-27.75 117.03-29.44 118.43-30.71 119.84-31.98 121.84-32.71 123.84-33.45 126.31-33.45L126.31-33.45ZM135.61-16.26L136.07-11.06 138.86-11.06 136.93-29.25 135.41-30.76 132.17-31.25 129.56-31.25 126.31-30.76 124.82-29.25 122.82-11.06 125.72-11.06 126.11-16.26 126.36-18.51 135.37-18.51 135.61-16.26ZM132.07-28.66L134.37-28.3Q134.54-26.32 134.76-24.56 134.98-22.8 135.17-20.85L135.17-20.85 126.58-20.85 127.31-28.3Q127.99-28.37 128.49-28.47 128.99-28.56 129.68-28.66L129.68-28.66 132.07-28.66ZM167.37-28.66L167.37-31.25 153.26-31.25 153.26-28.66 159.02-28.66 159.02-11.06 161.63-11.06 161.63-28.66 167.37-28.66ZM155.21-33.45L162.73-33.45Q165.2-33.45 167.2-32.71 169.2-31.98 170.61-30.71 172.01-29.44 172.77-27.75 173.52-26.05 173.52-24.15L173.52-24.15 173.52-9.3Q173.52-7.4 172.77-5.7 172.01-4 170.61-2.73 169.2-1.46 167.2-0.73 165.2 0 162.73 0L162.73 0 155.21 0Q152.75 0 150.74-0.73 148.74-1.46 147.34-2.73 145.93-4 145.18-5.7 144.42-7.4 144.42-9.3L144.42-9.3 144.42-24.15Q144.42-26.05 145.18-27.75 145.93-29.44 147.34-30.71 148.74-31.98 150.74-32.71 152.75-33.45 155.21-33.45L155.21-33.45ZM184.12-33.45L191.64-33.45Q194.1-33.45 196.1-32.71 198.11-31.98 199.51-30.71 200.91-29.44 201.67-27.75 202.43-26.05 202.43-24.15L202.43-24.15 202.43-9.3Q202.43-7.4 201.67-5.7 200.91-4 199.51-2.73 198.11-1.46 196.1-0.73 194.1 0 191.64 0L191.64 0 184.12 0Q181.65 0 179.65-0.73 177.65-1.46 176.24-2.73 174.84-4 174.08-5.7 173.32-7.4 173.32-9.3L173.32-9.3 173.32-24.15Q173.32-26.05 174.08-27.75 174.84-29.44 176.24-30.71 177.65-31.98 179.65-32.71 181.65-33.45 184.12-33.45L184.12-33.45ZM196.66-14.99L196.66-27.29 196.32-29.35 194.78-30.91 192.27-31.25 185.73-31.25 183.24-30.91 181.67-29.35 181.38-27.29 181.38-14.99 181.67-12.89 183.29-11.35 185.73-11.06 192.27-11.06 194.78-11.35 196.32-12.89 196.66-14.99ZM194.08-15.26L193.74-13.89 192.12-13.65 185.87-13.65 184.29-13.89 183.92-15.36 183.92-27.05 184.16-28.39 185.87-28.66 192.12-28.66 193.83-28.39 194.08-26.95 194.08-15.26ZM213.02-33.45L220.54-33.45Q223-33.45 225.01-32.71 227.01-31.98 228.41-30.71 229.82-29.44 230.57-27.75 231.33-26.05 231.33-24.15L231.33-24.15 231.33-9.3Q231.33-7.4 230.57-5.7 229.82-4 228.41-2.73 227.01-1.46 225.01-0.73 223 0 220.54 0L220.54 0 213.02 0Q210.55 0 208.55-0.73 206.55-1.46 205.15-2.73 203.74-4 202.99-5.7 202.23-7.4 202.23-9.3L202.23-9.3 202.23-24.15Q202.23-26.05 202.99-27.75 203.74-29.44 205.15-30.71 206.55-31.98 208.55-32.71 210.55-33.45 213.02-33.45L213.02-33.45ZM221.42-18.41L221.78-17.09 221.78-11.06 224.37-11.06 224.37-17.36 223.52-19.6 220.73-20.61 223.42-21.9 224.18-24.1 224.18-26.81 223.88-28.86 222.27-30.91 219.83-31.25 210.72-31.25 210.72-11.06 213.34-11.06 213.34-19.19 219.68-19.19 221.42-18.41ZM213.34-28.66L219.68-28.66 221.42-27.91 221.59-26.49 221.59-23.9 221.22-22.56 219.68-21.8 213.34-21.8 213.34-28.66Z" fill="#fefefe" data-fill-palette-color="primary"></path><path d="M242.02-33.45L249.54-33.45Q252.01-33.45 254.01-32.71 256.01-31.98 257.42-30.71 258.82-29.44 259.58-27.75 260.33-26.05 260.33-24.15L260.33-24.15 260.33-9.3Q260.33-7.4 259.58-5.7 258.82-4 257.42-2.73 256.01-1.46 254.01-0.73 252.01 0 249.54 0L249.54 0 242.02 0Q239.56 0 237.56-0.73 235.55-1.46 234.15-2.73 232.75-4 231.99-5.7 231.23-7.4 231.23-9.3L231.23-9.3 231.23-24.15Q231.23-26.05 231.99-27.75 232.75-29.44 234.15-30.71 235.55-31.98 237.56-32.71 239.56-33.45 242.02-33.45L242.02-33.45ZM246.54-29.17L245.73-30.86 244.39-31.25 241.19-31.25 239.14-30.91 237.58-29.35 237.58-11.06 240.19-11.06 240.19-28.44Q240.53-28.52 240.8-28.54 241.07-28.56 241.39-28.66L241.39-28.66 244.17-28.66Q244.44-28.56 244.7-28.54 244.95-28.52 245.22-28.44L245.22-28.44 245.22-18.09 247.83-18.09 247.83-28.44 248.88-28.66 251.69-28.66Q251.98-28.56 252.28-28.54 252.57-28.52 252.89-28.44L252.89-28.44 252.89-11.06 255.48-11.06 255.48-29.35 253.94-30.91 251.89-31.25 248.69-31.25 247.37-30.86 246.54-29.17ZM282.33-11.06L282.33-13.65 272.59-13.65 272.59-19.85 280.74-19.85 280.74-22.41 272.59-22.41 272.59-28.66 281.99-28.66 281.99-31.25 270.05-31.25 270.05-11.06 282.33-11.06ZM270.93-33.45L278.45-33.45Q280.91-33.45 282.91-32.71 284.92-31.98 286.32-30.71 287.72-29.44 288.48-27.75 289.24-26.05 289.24-24.15L289.24-24.15 289.24-9.3Q289.24-7.4 288.48-5.7 287.72-4 286.32-2.73 284.92-1.46 282.91-0.73 280.91 0 278.45 0L278.45 0 270.93 0Q268.46 0 266.46-0.73 264.46-1.46 263.05-2.73 261.65-4 260.89-5.7 260.14-7.4 260.14-9.3L260.14-9.3 260.14-24.15Q260.14-26.05 260.89-27.75 261.65-29.44 263.05-30.71 264.46-31.98 266.46-32.71 268.46-33.45 270.93-33.45L270.93-33.45ZM299.83-33.45L307.35-33.45Q309.82-33.45 311.82-32.71 313.82-31.98 315.22-30.71 316.63-29.44 317.38-27.75 318.14-26.05 318.14-24.15L318.14-24.15 318.14-9.3Q318.14-7.4 317.38-5.7 316.63-4 315.22-2.73 313.82-1.46 311.82-0.73 309.82 0 307.35 0L307.35 0 299.83 0Q297.37 0 295.36-0.73 293.36-1.46 291.96-2.73 290.55-4 289.8-5.7 289.04-7.4 289.04-9.3L289.04-9.3 289.04-24.15Q289.04-26.05 289.8-27.75 290.55-29.44 291.96-30.71 293.36-31.98 295.36-32.71 297.37-33.45 299.83-33.45L299.83-33.45ZM312.43-14.99L312.43-27.29 312.09-29.35 310.55-30.91 308.03-31.25 297.15-31.25 297.15-11.06 308.03-11.06 310.55-11.35 312.09-12.89 312.43-14.99ZM309.84-15.26L309.5-13.89 307.89-13.65 299.68-13.65 299.68-28.66 307.89-28.66 309.6-28.39 309.84-26.95 309.84-15.26ZM332.54-13.65L326.78-13.65 326.78-11.06 340.89-11.06 340.89-13.65 335.16-13.65 335.16-28.66 340.89-28.66 340.89-31.25 326.78-31.25 326.78-28.66 332.54-28.66 332.54-13.65ZM328.73-33.45L336.25-33.45Q338.72-33.45 340.72-32.71 342.72-31.98 344.13-30.71 345.53-29.44 346.29-27.75 347.05-26.05 347.05-24.15L347.05-24.15 347.05-9.3Q347.05-7.4 346.29-5.7 345.53-4 344.13-2.73 342.72-1.46 340.72-0.73 338.72 0 336.25 0L336.25 0 328.73 0Q326.27 0 324.27-0.73 322.26-1.46 320.86-2.73 319.46-4 318.7-5.7 317.94-7.4 317.94-9.3L317.94-9.3 317.94-24.15Q317.94-26.05 318.7-27.75 319.46-29.44 320.86-30.71 322.26-31.98 324.27-32.71 326.27-33.45 328.73-33.45L328.73-33.45ZM357.64-33.45L365.16-33.45Q367.62-33.45 369.63-32.71 371.63-31.98 373.03-30.71 374.44-29.44 375.19-27.75 375.95-26.05 375.95-24.15L375.95-24.15 375.95-9.3Q375.95-7.4 375.19-5.7 374.44-4 373.03-2.73 371.63-1.46 369.63-0.73 367.62 0 365.16 0L365.16 0 357.64 0Q355.17 0 353.17-0.73 351.17-1.46 349.76-2.73 348.36-4 347.6-5.7 346.85-7.4 346.85-9.3L346.85-9.3 346.85-24.15Q346.85-26.05 347.6-27.75 348.36-29.44 349.76-30.71 351.17-31.98 353.17-32.71 355.17-33.45 357.64-33.45L357.64-33.45ZM366.94-16.26L367.4-11.06 370.19-11.06 368.26-29.25 366.74-30.76 363.5-31.25 360.89-31.25 357.64-30.76 356.15-29.25 354.15-11.06 357.05-11.06 357.44-16.26 357.69-18.51 366.7-18.51 366.94-16.26ZM363.4-28.66L365.7-28.3Q365.87-26.32 366.09-24.56 366.31-22.8 366.5-20.85L366.5-20.85 357.91-20.85 358.64-28.3Q359.32-28.37 359.82-28.47 360.32-28.56 361.01-28.66L361.01-28.66 363.4-28.66Z" fill="#ffffff" data-fill-palette-color="secondary"></path></g></svg></g></svg></g><g transform="matrix(1,0,0,1,163.310208,43.49240960664935)"><svg viewBox="0 0 232.209792 12.898294166724797" height="12.898294166724797" width="232.209792"><g transform="matrix(1,0,0,1,0,0)"><svg width="232.209792" viewBox="-12.5 -31.25 573.3599853515625 31.850000381469727" height="12.898294166724797" data-palette-color="#ffffff"><path d="M27.65 0L22.55-11.1Q22.35-11.45 22.35-12.08 22.35-12.7 22.45-13.5L22.45-13.5 22.05-13.5 19.7 0 10.2 0 15.7-31.25 24.65-31.25 29.75-20.15Q29.9-19.8 29.9-19.18 29.9-18.55 29.8-17.75L29.8-17.75 30.2-17.75 32.6-31.25 42.1-31.25 36.6 0 27.65 0ZM9.1-2.4L8.7-0.15-12.5-2.4 9.1-2.4ZM10.8-12.05L10.4-9.8-10.8-12.05 10.8-12.05ZM11.65-16.85L11.25-14.6-9.95-16.85 11.65-16.85ZM12.5-21.65L12.1-19.4-9.1-21.65 12.5-21.65ZM13.3-26.45L12.95-24.2-8.25-26.45 13.3-26.45ZM9.95-7.25L9.55-5-11.65-7.25 9.95-7.25ZM14.15-31.25L13.75-29-7.4-31.25 14.15-31.25ZM68-26.95L68-26.95Q73.4-26.95 75.7-24.88 78-22.8 78-18.4L78-18.4Q78-16.25 77.45-13.2L77.45-13.2Q76.2-6 73.05-2.7 69.9 0.6 63.15 0.6L63.15 0.6Q57.85 0.6 55.6-1.48 53.35-3.55 53.35-7.9L53.35-7.9Q53.35-10.15 53.9-13.2L53.9-13.2Q55.15-20.4 58.25-23.68 61.35-26.95 68-26.95ZM61.65-7L64.6-7Q66.05-7 66.77-7.35 67.5-7.7 67.75-8.9L67.75-8.9 69.65-19.35 66.6-19.35Q65.2-19.35 64.42-19 63.65-18.65 63.5-17.5L63.5-17.5 61.65-7ZM32.2-12.05L52.15-12.05Q51.95-10.5 51.9-9.95L51.9-9.95 32.2-12.05ZM33.1-16.85L53.1-16.85 52.65-14.75 33.1-16.85ZM32.4-7.25L51.85-7.25Q51.85-6.45 52.05-5.15L52.05-5.15 32.4-7.25ZM35.1-21.65L54.85-21.65Q54.25-20.35 54-19.65L54-19.65 35.1-21.65ZM36.75-2.4L52.9-2.4Q53.5-1.2 54.2-0.55L54.2-0.55 36.75-2.4ZM41.8-26.45L59.2-26.45Q58-25.75 57.15-24.8L57.15-24.8 41.8-26.45ZM113 0L106.2 0 101.05-9.9 100.84-9.9 99.09 0 90.7 0 95.3-26.45 102.09-26.45 107.3-16.6 107.59-16.6 109.3-26.45 117.65-26.45 113 0ZM89.45-2.4L89.05-0.15 67.84-2.4 89.45-2.4ZM91.15-12.05L90.75-9.8 69.55-12.05 91.15-12.05ZM92-16.85L91.59-14.6 70.4-16.85 92-16.85ZM92.84-21.65L92.45-19.4 71.25-21.65 92.84-21.65ZM93.65-26.45L93.3-24.2 72.09-26.45 93.65-26.45ZM90.3-7.25L89.9-5 68.7-7.25 90.3-7.25ZM135.54-12.05L135.14-9.8 118.94-12.05 135.54-12.05ZM136.39-16.85L135.99-14.6 119.79-16.85 136.39-16.85ZM167.59-19.05L166.24-11.6 158.14-11.6 156.14 0 146.64 0 152.14-31.25 171.64-31.25 168.99-23.25 160.19-23.25 159.49-19.05 167.59-19.05ZM145.54-2.4L145.14-0.15 123.94-2.4 145.54-2.4ZM147.24-12.05L146.84-9.8 125.64-12.05 147.24-12.05ZM148.09-16.85L147.69-14.6 126.49-16.85 148.09-16.85ZM148.94-21.65L148.54-19.4 127.34-21.65 148.94-21.65ZM149.74-26.45L149.39-24.2 128.19-26.45 149.74-26.45ZM146.39-7.25L145.99-5 124.79-7.25 146.39-7.25ZM150.59-31.25L150.19-29 129.04-31.25 150.59-31.25ZM180.39-12.05L179.99-9.8 158.79-12.05 180.39-12.05ZM181.24-16.85L180.84-14.6 159.64-16.85 181.24-16.85ZM182.09-21.65L181.69-19.4 160.49-21.65 182.09-21.65ZM182.89-26.45L182.54-24.2 161.34-26.45 182.89-26.45ZM158.64-7.25L179.79-7.25 179.79-6.25Q179.79-5.4 179.84-5L179.84-5 158.64-7.25ZM181.74-0.15L181.74-0.15 160.54-2.4 180.29-2.4Q180.84-1 181.74-0.15ZM189.49-7L191.99-7Q193.34-7 193.86-7.33 194.39-7.65 194.59-8.9L194.59-8.9 197.74-26.45 206.14-26.45 203.54-11.55Q202.34-4.55 199.66-1.98 196.99 0.6 190.54 0.6L190.54 0.6Q185.39 0.6 183.34-0.93 181.29-2.45 181.29-6.25L181.29-6.25Q181.29-8.35 181.84-11.55L181.84-11.55 184.49-26.45 192.89-26.45 189.49-7ZM238.59 0L231.79 0 226.64-9.9 226.44-9.9 224.69 0 216.28 0 220.89-26.45 227.69-26.45 232.89-16.6 233.19-16.6 234.89-26.45 243.24-26.45 238.59 0ZM215.03-2.4L214.64-0.15 193.44-2.4 215.03-2.4ZM216.74-12.05L216.34-9.8 195.14-12.05 216.74-12.05ZM217.59-16.85L217.19-14.6 195.99-16.85 217.59-16.85ZM218.44-21.65L218.03-19.4 196.84-21.65 218.44-21.65ZM219.24-26.45L218.89-24.2 197.69-26.45 219.24-26.45ZM215.89-7.25L215.49-5 194.28-7.25 215.89-7.25ZM277.28-15.55L274.78-1.4Q269.68 0.6 264.38 0.6 259.08 0.6 256.83-1.48 254.58-3.55 254.58-7.9L254.58-7.9Q254.58-10.05 255.28-14.05 255.98-18.05 257.43-20.9L257.43-20.9Q260.58-26.95 270.18-26.95L270.18-26.95Q275.78-26.95 277.98-25.85L277.98-25.85 275.43-18.9Q272.28-19.6 269.76-19.6 267.23-19.6 266.18-19.25 265.13-18.9 264.93-17.9L264.93-17.9 262.83-6.4 265.13-6.4Q266.38-6.4 267.06-6.68 267.73-6.95 267.88-7.9L267.88-7.9 268.23-9.85 266.18-9.85 267.18-15.55 277.28-15.55ZM233.43-12.05L253.38-12.05Q253.18-10.5 253.13-9.95L253.13-9.95 233.43-12.05ZM234.33-16.85L254.33-16.85 253.88-14.75 234.33-16.85ZM233.63-7.25L253.08-7.25Q253.08-6.45 253.28-5.15L253.28-5.15 233.63-7.25ZM236.33-21.65L256.08-21.65Q255.48-20.35 255.23-19.65L255.23-19.65 236.33-21.65ZM237.98-2.4L254.13-2.4Q254.73-1.2 255.43-0.55L255.43-0.55 237.98-2.4ZM243.03-26.45L260.43-26.45Q259.23-25.75 258.38-24.8L258.38-24.8 243.03-26.45ZM298.28 0L289.53 0 294.13-26.45 302.93-26.45 298.28 0ZM288.28-2.4L287.88-0.15 266.68-2.4 288.28-2.4ZM289.98-12.05L289.58-9.8 268.38-12.05 289.98-12.05ZM290.83-16.85L290.43-14.6 269.23-16.85 290.83-16.85ZM291.68-21.65L291.28-19.4 270.08-21.65 291.68-21.65ZM292.48-26.45L292.13-24.2 270.93-26.45 292.48-26.45ZM289.13-7.25L288.73-5 267.53-7.25 289.13-7.25ZM318.58-26.45L332.08-26.45Q337.78-26.45 337.78-21.75L337.78-21.75Q337.78-19.15 336.55-17.05 335.33-14.95 333.58-14.15L333.58-14.15 333.53-13.85Q336.83-12.8 336.83-9.3L336.83-9.3Q336.83-4.9 334.45-2.45 332.08 0 327.28 0L327.28 0 313.98 0 318.58-26.45ZM327.28-10.25L327.28-10.25 324.18-10.25 323.53-6.55 326.63-6.55Q328.38-6.55 328.38-9.1L328.38-9.1Q328.38-10.25 327.28-10.25ZM328.58-20.1L328.58-20.1 325.88-20.1 325.33-16.9 328.08-16.9Q329.58-16.9 329.58-19.1L329.58-19.1Q329.58-20.1 328.58-20.1ZM312.78-2.4L312.38-0.15 291.18-2.4 312.78-2.4ZM314.48-12.05L314.08-9.8 292.88-12.05 314.48-12.05ZM315.33-16.85L314.93-14.6 293.73-16.85 315.33-16.85ZM316.18-21.65L315.78-19.4 294.58-21.65 316.18-21.65ZM316.98-26.45L316.63-24.2 295.43-26.45 316.98-26.45ZM313.63-7.25L313.23-5 292.03-7.25 313.63-7.25ZM367.23-7.35L365.93 0 349.68 0 354.28-26.45 363.08-26.45 359.73-7.35 367.23-7.35ZM348.43-2.4L348.03-0.15 326.83-2.4 348.43-2.4ZM350.13-12.05L349.73-9.8 328.53-12.05 350.13-12.05ZM350.98-16.85L350.58-14.6 329.38-16.85 350.98-16.85ZM351.83-21.65L351.43-19.4 330.23-21.65 351.83-21.65ZM352.63-26.45L352.28-24.2 331.08-26.45 352.63-26.45ZM349.28-7.25L348.88-5 327.68-7.25 349.28-7.25ZM396.62-15.55L395.77-10.75 388.32-10.75 387.72-7.35 396.97-7.35 395.67 0 378.02 0 382.62-26.45 400.22-26.45 397.87-18.95 389.72-18.95 389.12-15.55 396.62-15.55ZM376.77-2.4L376.37-0.15 355.17-2.4 376.77-2.4ZM378.47-12.05L378.07-9.8 356.87-12.05 378.47-12.05ZM379.32-16.85L378.92-14.6 357.72-16.85 379.32-16.85ZM380.17-21.65L379.77-19.4 358.57-21.65 380.17-21.65ZM380.97-26.45L380.62-24.2 359.42-26.45 380.97-26.45ZM377.62-7.25L377.22-5 356.02-7.25 377.62-7.25ZM419.72-2.4L419.22-0.15 398.12-2.4 419.72-2.4ZM420.87-7.25L420.32-5 399.27-7.25 420.87-7.25ZM421.97-12.05L421.47-9.8 400.42-12.05 421.97-12.05ZM423.12-16.85L422.57-14.6 401.57-16.85 423.12-16.85ZM424.22-21.65L423.72-19.4 402.72-21.65 424.22-21.65ZM425.37-26.45L424.82-24.2 403.87-26.45 425.37-26.45ZM426.47-31.25L425.97-29 405.02-31.25 426.47-31.25ZM433.87-15.15L430.62 0 420.72 0 428.02-31.25 440.42-31.25 441.32-15.35 441.67-15.35 448.17-31.25 460.57-31.25 456.87 0 446.92 0 449.02-15.15 448.67-15.15 442.42 0 435.17 0 434.12-15.15 433.87-15.15ZM480.72 0L471.97 0 476.57-26.45 485.37-26.45 480.72 0ZM470.72-2.4L470.32-0.15 449.12-2.4 470.72-2.4ZM472.42-12.05L472.02-9.8 450.82-12.05 472.42-12.05ZM473.27-16.85L472.87-14.6 451.67-16.85 473.27-16.85ZM474.12-21.65L473.72-19.4 452.52-21.65 474.12-21.65ZM474.92-26.45L474.57-24.2 453.37-26.45 474.92-26.45ZM471.57-7.25L471.17-5 449.97-7.25 471.57-7.25ZM518.71 0L511.91 0 506.76-9.9 506.56-9.9 504.81 0 496.41 0 501.01-26.45 507.81-26.45 513.01-16.6 513.31-16.6 515.01-26.45 523.36-26.45 518.71 0ZM495.16-2.4L494.76-0.15 473.56-2.4 495.16-2.4ZM496.86-12.05L496.46-9.8 475.26-12.05 496.86-12.05ZM497.71-16.85L497.31-14.6 476.11-16.85 497.71-16.85ZM498.56-21.65L498.16-19.4 476.96-21.65 498.56-21.65ZM499.36-26.45L499.01-24.2 477.81-26.45 499.36-26.45ZM496.01-7.25L495.61-5 474.41-7.25 496.01-7.25ZM539.46-26.45L550.71-26.45Q556.16-26.45 558.51-24.5 560.86-22.55 560.86-18.25L560.86-18.25Q560.86-16.2 560.31-13.2L560.31-13.2Q559.06-6.1 555.99-3.05 552.91 0 546.06 0L546.06 0 534.86 0 539.46-26.45ZM549.51-19.15L549.51-19.15 546.61-19.15 544.51-7.15 547.41-7.15Q548.86-7.15 549.63-7.53 550.41-7.9 550.61-9.05L550.61-9.05 552.06-17.3Q552.11-17.5 552.11-18.1L552.11-18.1Q552.11-19.15 549.51-19.15ZM533.61-2.4L533.21-0.15 512.01-2.4 533.61-2.4ZM535.31-12.05L534.91-9.8 513.71-12.05 535.31-12.05ZM536.16-16.85L535.76-14.6 514.56-16.85 536.16-16.85ZM537.01-21.65L536.61-19.4 515.41-21.65 537.01-21.65ZM537.81-26.45L537.46-24.2 516.26-26.45 537.81-26.45ZM534.46-7.25L534.06-5 512.86-7.25 534.46-7.25Z" opacity="1" transform="matrix(1,0,0,1,0,0)" fill="#ffffff" class="undefined-text-1" data-fill-palette-color="secondary" id="text-1"></path></svg></g></svg></g></svg></g></svg></g><g transform="matrix(1,0,0,1,403.8265394767792,0)"><svg viewBox="0 0 74.91377068195159 77.93195261480308" height="77.93195261480308" width="74.91377068195159"><g><svg xmlns="http://www.w3.org/2000/svg" xmlns:xlink="http://www.w3.org/1999/xlink" version="1.1" x="0" y="0" viewBox="9.84000015258789 8.221999168395996 80.32000732421875 83.55599975585938" enable-background="new 0 0 100 100" xml:space="preserve" height="77.93195261480308" width="74.91377068195159" class="icon-icon-0" data-fill-palette-color="accent" id="icon-0"><g fill="#ffffff" data-fill-palette-color="accent"><path fill="none" d="M23.352 59.069c-1.719 0-3.117 1.399-3.117 3.119 0 1.719 1.398 3.118 3.117 3.118 1.721 0 3.119-1.399 3.119-3.118C26.471 60.469 25.072 59.069 23.352 59.069z"></path><path fill="none" d="M10.844 63.986c0 1.719 1.4 3.118 3.119 3.118s3.119-1.399 3.119-3.118c0-1.72-1.4-3.118-3.119-3.118S10.844 62.267 10.844 63.986z"></path><path fill="none" d="M23.418 27.693c0-1.719-1.4-3.118-3.119-3.118s-3.119 1.399-3.119 3.118c0 1.72 1.4 3.118 3.119 3.118S23.418 29.413 23.418 27.693z"></path><path fill="none" d="M20.336 42.986c-1.719 0-3.117 1.398-3.117 3.118 0 1.719 1.398 3.118 3.117 3.118 1.721 0 3.119-1.399 3.119-3.118C23.455 44.385 22.057 42.986 20.336 42.986z"></path><path fill="none" d="M54.449 15.463c1.721 0 3.119-1.398 3.119-3.118 0-1.719-1.398-3.118-3.119-3.118-1.719 0-3.117 1.399-3.117 3.118C51.332 14.064 52.73 15.463 54.449 15.463z"></path><path fill="none" d="M82.82 27.693c0-1.719-1.398-3.118-3.119-3.118-1.719 0-3.117 1.399-3.117 3.118 0 1.72 1.398 3.118 3.117 3.118C81.422 30.812 82.82 29.413 82.82 27.693z"></path><path fill="none" d="M32.938 15.695c-1.719 0-3.117 1.399-3.117 3.118 0 1.72 1.398 3.118 3.117 3.118 1.721 0 3.119-1.398 3.119-3.118C36.057 17.095 34.658 15.695 32.938 15.695z"></path><path fill="none" d="M79.664 49.223c1.719 0 3.117-1.399 3.117-3.118 0-1.72-1.398-3.118-3.117-3.118-1.721 0-3.117 1.398-3.117 3.118C76.547 47.823 77.943 49.223 79.664 49.223z"></path><path fill="none" d="M76.648 59.069c-1.721 0-3.119 1.399-3.119 3.119 0 1.719 1.398 3.118 3.119 3.118 1.719 0 3.117-1.399 3.117-3.118C79.766 60.469 78.367 59.069 76.648 59.069z"></path><path fill="none" d="M45.104 84.537c-1.719 0-3.117 1.398-3.117 3.118 0 1.719 1.398 3.118 3.117 3.118 1.721 0 3.119-1.399 3.119-3.118C48.223 85.936 46.824 84.537 45.104 84.537z"></path><path fill="none" d="M86.037 60.868c-1.719 0-3.117 1.398-3.117 3.118 0 1.719 1.398 3.118 3.117 3.118s3.119-1.399 3.119-3.118C89.156 62.267 87.756 60.868 86.037 60.868z"></path><path fill="none" d="M66.615 78.067c-1.719 0-3.117 1.399-3.117 3.119 0 1.719 1.398 3.118 3.117 3.118 1.721 0 3.119-1.399 3.119-3.118C69.734 79.467 68.336 78.067 66.615 78.067z"></path><path d="M63.457 67.553V32.697c0-0.903-0.516-1.636-1.154-1.636h-24.59c-0.637 0-1.154 0.732-1.154 1.636v34.855c0 0.903 0.518 1.636 1.154 1.636h24.59C62.941 69.188 63.457 68.456 63.457 67.553z" fill="#ffffff" data-fill-palette-color="accent"></path><path d="M45.904 19.316v4.305c-1.332 0.237-2.346 1.396-2.346 2.797 0 1.573 1.275 2.849 2.848 2.849 1.574 0 2.85-1.275 2.85-2.849 0-1.4-1.014-2.559-2.346-2.797v-4.808c0-0.277-0.225-0.502-0.504-0.502H37.01c-0.25-2.035-1.969-3.621-4.072-3.621-2.273 0-4.123 1.85-4.123 4.123s1.85 4.124 4.123 4.124c2.104 0 3.822-1.587 4.072-3.621H45.904zM32.938 21.932c-1.719 0-3.117-1.398-3.117-3.118 0-1.719 1.398-3.118 3.117-3.118 1.721 0 3.119 1.399 3.119 3.118C36.057 20.533 34.658 21.932 32.938 21.932z" fill="#ffffff" data-fill-palette-color="accent"></path><path d="M53.947 16.418v7.203c-1.332 0.238-2.346 1.396-2.346 2.797 0 1.573 1.275 2.849 2.848 2.849 1.574 0 2.85-1.275 2.85-2.849 0-1.401-1.016-2.56-2.348-2.797v-7.203c2.035-0.251 3.621-1.971 3.621-4.073 0-2.273-1.848-4.123-4.123-4.123-2.273 0-4.123 1.85-4.123 4.123C50.326 14.446 51.912 16.166 53.947 16.418zM54.449 9.227c1.721 0 3.119 1.399 3.119 3.118 0 1.72-1.398 3.118-3.119 3.118-1.719 0-3.117-1.398-3.117-3.118C51.332 10.626 52.73 9.227 54.449 9.227z" fill="#ffffff" data-fill-palette-color="accent"></path><path d="M66.615 77.063c-2.102 0-3.82 1.587-4.072 3.621h-8.895v-4.305c1.334-0.237 2.348-1.396 2.348-2.798 0-1.572-1.275-2.848-2.85-2.848-1.572 0-2.848 1.275-2.848 2.848 0 1.401 1.014 2.56 2.346 2.798v4.808c0 0.277 0.225 0.502 0.502 0.502h9.396c0.252 2.035 1.971 3.621 4.072 3.621 2.273 0 4.123-1.85 4.123-4.123C70.738 78.912 68.889 77.063 66.615 77.063zM66.615 84.305c-1.719 0-3.117-1.399-3.117-3.118 0-1.72 1.398-3.119 3.117-3.119 1.721 0 3.119 1.399 3.119 3.119C69.734 82.905 68.336 84.305 66.615 84.305z" fill="#ffffff" data-fill-palette-color="accent"></path><path d="M45.607 83.582v-7.203c1.332-0.238 2.346-1.396 2.346-2.798 0-1.572-1.275-2.848-2.85-2.848-1.572 0-2.848 1.275-2.848 2.848 0 1.401 1.014 2.561 2.346 2.798v7.203c-2.035 0.251-3.621 1.971-3.621 4.073 0 2.273 1.85 4.123 4.123 4.123s4.125-1.85 4.125-4.123C49.229 85.554 47.641 83.834 45.607 83.582zM45.104 90.773c-1.719 0-3.117-1.399-3.117-3.118 0-1.72 1.398-3.118 3.117-3.118 1.721 0 3.119 1.398 3.119 3.118C48.223 89.374 46.824 90.773 45.104 90.773z" fill="#ffffff" data-fill-palette-color="accent"></path><path d="M68.605 40.91c1.402 0 2.561-1.013 2.797-2.346h8.01c0.277 0 0.502-0.225 0.502-0.502v-6.26h-0.066c2.205-0.079 3.977-1.886 3.977-4.109 0-2.273-1.848-4.123-4.123-4.123-2.273 0-4.123 1.85-4.123 4.123 0 2.224 1.773 4.03 3.979 4.109h-0.648v5.757h-7.506c-0.236-1.333-1.395-2.346-2.797-2.346-1.572 0-2.848 1.275-2.848 2.849S67.033 40.91 68.605 40.91zM76.584 27.693c0-1.719 1.398-3.118 3.117-3.118 1.721 0 3.119 1.399 3.119 3.118 0 1.72-1.398 3.118-3.119 3.118C77.982 30.812 76.584 29.413 76.584 27.693z" fill="#ffffff" data-fill-palette-color="accent"></path><path d="M86.541 59.913v-5.995c0-0.277-0.225-0.502-0.504-0.502H71.348c-0.324-1.217-1.424-2.118-2.742-2.118-1.572 0-2.848 1.275-2.848 2.849s1.275 2.848 2.848 2.848c1.479 0 2.68-1.131 2.82-2.573h14.109v5.492c-2.035 0.252-3.621 1.972-3.621 4.073 0 2.273 1.85 4.123 4.123 4.123s4.123-1.85 4.123-4.123C90.16 61.885 88.574 60.165 86.541 59.913zM86.037 67.104c-1.719 0-3.117-1.399-3.117-3.118 0-1.72 1.398-3.118 3.117-3.118s3.119 1.398 3.119 3.118C89.156 65.705 87.756 67.104 86.037 67.104z" fill="#ffffff" data-fill-palette-color="accent"></path><path d="M68.605 48.952c1.402 0 2.561-1.014 2.799-2.346h4.188c0.25 2.035 1.971 3.621 4.072 3.621 2.273 0 4.123-1.85 4.123-4.123s-1.85-4.124-4.123-4.124c-2.102 0-3.82 1.587-4.072 3.62h-4.188c-0.238-1.332-1.398-2.345-2.799-2.345-1.572 0-2.848 1.275-2.848 2.849S67.033 48.952 68.605 48.952zM79.664 42.986c1.719 0 3.117 1.398 3.117 3.118 0 1.719-1.398 3.118-3.117 3.118-1.721 0-3.117-1.399-3.117-3.118C76.547 44.385 77.943 42.986 79.664 42.986z" fill="#ffffff" data-fill-palette-color="accent"></path><path d="M76.648 58.064c-2.102 0-3.82 1.587-4.072 3.62h-1.172c-0.238-1.332-1.398-2.345-2.799-2.345-1.572 0-2.848 1.275-2.848 2.849s1.275 2.848 2.848 2.848c1.402 0 2.561-1.014 2.799-2.346h1.172c0.25 2.035 1.971 3.621 4.072 3.621 2.273 0 4.123-1.85 4.123-4.123S78.922 58.064 76.648 58.064zM76.648 65.307c-1.721 0-3.119-1.399-3.119-3.118 0-1.72 1.398-3.119 3.119-3.119 1.719 0 3.117 1.399 3.117 3.119C79.766 63.907 78.367 65.307 76.648 65.307z" fill="#ffffff" data-fill-palette-color="accent"></path><path d="M31.395 35.214c-1.4 0-2.559 1.013-2.797 2.346h-7.506v-5.757h-0.648c2.205-0.079 3.979-1.886 3.979-4.109 0-2.273-1.85-4.123-4.123-4.123s-4.123 1.85-4.123 4.123c0 2.224 1.771 4.03 3.977 4.109h-0.066v6.26c0 0.277 0.225 0.502 0.502 0.502h8.01c0.238 1.333 1.396 2.346 2.797 2.346 1.574 0 2.848-1.274 2.848-2.848S32.969 35.214 31.395 35.214zM17.18 27.693c0-1.719 1.4-3.118 3.119-3.118s3.119 1.399 3.119 3.118c0 1.72-1.4 3.118-3.119 3.118S17.18 29.413 17.18 27.693z" fill="#ffffff" data-fill-palette-color="accent"></path><path d="M31.395 51.298c-1.318 0-2.418 0.901-2.742 2.118H13.963c-0.277 0-0.504 0.225-0.504 0.502v5.995c-2.033 0.252-3.619 1.972-3.619 4.073 0 2.273 1.85 4.123 4.123 4.123s4.123-1.85 4.123-4.123c0-2.102-1.586-3.821-3.621-4.073v-5.492h14.109c0.141 1.442 1.342 2.573 2.82 2.573 1.574 0 2.848-1.274 2.848-2.848S32.969 51.298 31.395 51.298zM17.082 63.986c0 1.719-1.4 3.118-3.119 3.118s-3.119-1.399-3.119-3.118c0-1.72 1.4-3.118 3.119-3.118S17.082 62.267 17.082 63.986z" fill="#ffffff" data-fill-palette-color="accent"></path><path d="M31.395 43.256c-1.4 0-2.559 1.013-2.799 2.345h-4.188c-0.25-2.033-1.971-3.62-4.072-3.62-2.273 0-4.123 1.851-4.123 4.124s1.85 4.123 4.123 4.123c2.102 0 3.822-1.586 4.072-3.621h4.188c0.238 1.332 1.398 2.346 2.799 2.346 1.572 0 2.848-1.274 2.848-2.848S32.967 43.256 31.395 43.256zM20.336 49.223c-1.719 0-3.117-1.399-3.117-3.118 0-1.72 1.398-3.118 3.117-3.118 1.721 0 3.119 1.398 3.119 3.118C23.455 47.823 22.057 49.223 20.336 49.223z" fill="#ffffff" data-fill-palette-color="accent"></path><path d="M31.395 59.34c-1.4 0-2.559 1.013-2.799 2.345h-1.172c-0.25-2.033-1.971-3.62-4.072-3.62-2.273 0-4.123 1.851-4.123 4.124s1.85 4.123 4.123 4.123c2.102 0 3.822-1.586 4.072-3.621h1.172c0.238 1.332 1.398 2.346 2.799 2.346 1.572 0 2.848-1.274 2.848-2.848S32.967 59.34 31.395 59.34zM23.352 65.307c-1.719 0-3.117-1.399-3.117-3.118 0-1.72 1.398-3.119 3.117-3.119 1.721 0 3.119 1.399 3.119 3.119C26.471 63.907 25.072 65.307 23.352 65.307z" fill="#ffffff" data-fill-palette-color="accent"></path></g></svg></g></svg></g></svg></g></svg><rect width="395.5199999999999" height="64.38489770787642" fill="none" stroke="none" visibility="hidden"></rect></g></svg></g></svg>