<?xml version="1.0" encoding="UTF-8"?>
<svg xmlns="http://www.w3.org/2000/svg" xmlns:xlink="http://www.w3.org/1999/xlink" width="512px" height="512px" viewBox="0 0 512 138" version="1.1">
<g id="surface1">
<path style=" stroke:none;fill-rule:nonzero;fill:rgb(6.27451%,66.666667%,31.372549%);fill-opacity:1;" d="M 61.933594 55.355469 C 54.890625 24.289062 40.210938 16.015625 36.46875 10.171875 C 34.925781 7.59375 33.554688 4.917969 32.375 2.15625 C 32.175781 4.917969 31.8125 6.65625 29.464844 8.75 C 24.757812 12.949219 4.75 29.25 3.066406 64.550781 C 1.496094 97.464844 27.261719 117.761719 30.667969 119.859375 C 33.285156 121.144531 36.472656 119.886719 38.027344 118.703125 C 50.449219 110.179688 67.417969 87.457031 61.949219 55.355469 "/>
<path style=" stroke:none;fill-rule:nonzero;fill:rgb(72.156863%,76.862745%,76.078431%);fill-opacity:1;" d="M 33.441406 102.332031 C 32.792969 110.476562 32.328125 115.210938 30.679688 119.867188 C 30.679688 119.867188 31.761719 127.621094 32.519531 135.839844 L 35.207031 135.839844 C 35.847656 130.050781 36.828125 124.308594 38.136719 118.636719 C 34.660156 116.925781 33.574219 109.480469 33.441406 102.332031 Z M 33.441406 102.332031 "/>
<path style=" stroke:none;fill-rule:nonzero;fill:rgb(7.058824%,57.254902%,30.980392%);fill-opacity:1;" d="M 38.132812 118.644531 C 34.617188 117.019531 33.601562 109.414062 33.445312 102.332031 C 34.316406 90.644531 34.566406 78.921875 34.203125 67.210938 C 34.019531 61.066406 34.292969 10.289062 32.691406 2.855469 C 33.785156 5.375 35.046875 7.816406 36.46875 10.164062 C 40.210938 16.015625 54.894531 24.289062 61.933594 55.355469 C 67.417969 87.398438 50.539062 110.0625 38.132812 118.644531 Z M 38.132812 118.644531 "/>
<path style=" stroke:none;fill-rule:nonzero;fill:rgb(12.941176%,19.215686%,23.529412%);fill-opacity:1;" d="M 501.371094 107.410156 C 497.171875 107.410156 493.757812 104.015625 493.742188 99.8125 C 493.722656 95.613281 497.101562 92.1875 501.300781 92.148438 C 505.503906 92.109375 508.945312 95.472656 509.003906 99.671875 C 509.058594 101.722656 508.277344 103.707031 506.835938 105.167969 C 505.394531 106.628906 503.421875 107.4375 501.371094 107.410156 M 501.371094 92.835938 C 498.558594 92.820312 496.011719 94.496094 494.921875 97.089844 C 493.832031 99.679688 494.410156 102.675781 496.390625 104.671875 C 498.371094 106.667969 501.359375 107.277344 503.960938 106.210938 C 506.5625 105.144531 508.265625 102.613281 508.273438 99.800781 C 508.308594 97.953125 507.59375 96.171875 506.292969 94.859375 C 504.996094 93.546875 503.21875 92.816406 501.371094 92.835938 M 503.210938 104.605469 L 501.242188 100.359375 L 499.65625 100.359375 L 499.65625 104.605469 L 498.5 104.605469 L 498.5 94.945312 L 501.347656 94.945312 C 503.46875 94.945312 504.351562 95.863281 504.351562 97.644531 C 504.351562 99.0625 503.683594 99.945312 502.441406 100.214844 L 504.476562 104.589844 Z M 499.703125 99.359375 L 501.371094 99.359375 C 502.722656 99.359375 503.238281 98.898438 503.238281 97.667969 C 503.238281 96.433594 502.746094 96.015625 501.222656 96.015625 L 499.703125 96.015625 Z M 499.703125 99.359375 "/>
<path style=" stroke:none;fill-rule:nonzero;fill:rgb(12.941176%,19.215686%,23.529412%);fill-opacity:1;" d="M 387.789062 100.453125 C 389.855469 102.105469 393.980469 102.785156 397.617188 102.785156 C 402.335938 102.785156 406.957031 101.914062 411.472656 97.832031 C 416.074219 93.652344 419.238281 87.253906 419.238281 77.035156 C 419.238281 67.21875 415.503906 59.253906 407.839844 54.589844 C 403.515625 51.871094 397.914062 50.796875 391.523438 50.796875 C 389.683594 50.796875 387.789062 50.894531 386.710938 51.382812 C 386.269531 51.730469 385.957031 52.214844 385.824219 52.761719 C 385.628906 54.511719 385.628906 67.824219 385.628906 75.691406 C 385.628906 83.761719 385.628906 95.011719 385.824219 96.394531 C 385.925781 97.5625 386.515625 99.613281 387.789062 100.472656 M 368.171875 46.429688 C 369.84375 46.429688 376.191406 46.71875 379.144531 46.71875 C 384.664062 46.71875 388.476562 46.429688 398.796875 46.429688 C 407.445312 46.429688 414.722656 48.761719 419.925781 53.226562 C 426.21875 58.671875 429.585938 66.25 429.585938 75.480469 C 429.585938 88.601562 423.605469 96.179688 417.59375 100.453125 C 411.613281 104.925781 403.832031 107.453125 392.75 107.453125 C 386.855469 107.453125 376.730469 107.257812 368.277344 107.160156 L 368.105469 107.160156 C 367.707031 106.382812 368.828125 103.351562 369.515625 103.273438 C 371.816406 103.015625 372.421875 102.925781 373.480469 102.488281 C 375.265625 101.757812 375.683594 100.847656 375.882812 97.640625 C 376.175781 91.613281 376.082031 84.421875 376.082031 76.257812 C 376.082031 70.429688 376.175781 59.058594 375.984375 55.460938 C 375.683594 52.453125 374.414062 51.675781 371.84375 51.09375 C 370.019531 50.703125 368.179688 50.414062 366.324219 50.21875 C 366.128906 49.632812 367.640625 47 368.132812 46.429688 "/>
<path style=" stroke:none;fill-rule:nonzero;fill:rgb(12.941176%,19.215686%,23.529412%);fill-opacity:1;" d="M 453.945312 51.359375 C 453.550781 51.457031 453.058594 52.429688 453.058594 52.914062 C 452.960938 56.414062 452.863281 65.546875 452.863281 71.859375 C 452.914062 72.109375 453.105469 72.300781 453.355469 72.347656 C 454.628906 72.445312 457.773438 72.546875 460.429688 72.546875 C 464.164062 72.546875 466.328125 72.058594 467.503906 71.476562 C 470.652344 69.921875 472.105469 66.515625 472.105469 62.828125 C 472.105469 54.371094 466.207031 51.164062 457.460938 51.164062 C 456.28125 51.152344 455.097656 51.214844 453.925781 51.359375 M 476.234375 90.230469 C 476.234375 81.675781 469.941406 76.820312 458.441406 76.820312 C 457.953125 76.820312 454.300781 76.722656 453.433594 76.917969 C 453.136719 77.011719 452.84375 77.207031 452.84375 77.402344 C 452.84375 83.527344 452.742188 93.339844 453.042969 97.226562 C 453.238281 98.878906 454.421875 101.210938 455.890625 101.890625 C 457.460938 102.765625 461 102.957031 463.457031 102.957031 C 470.238281 102.957031 476.234375 99.171875 476.234375 90.230469 M 436.1875 46.597656 C 437.074219 46.597656 439.6875 46.886719 446.371094 46.886719 C 452.660156 46.886719 457.769531 46.695312 463.851562 46.695312 C 471.417969 46.695312 481.835938 49.417969 481.835938 60.6875 C 481.835938 66.207031 477.90625 70.699219 472.796875 72.835938 C 472.5 72.933594 472.5 73.125 472.796875 73.222656 C 480.066406 75.0625 486.453125 79.539062 486.453125 88.089844 C 486.453125 96.449219 481.246094 101.695312 473.679688 105 C 469.078125 107.042969 463.359375 107.71875 457.578125 107.71875 C 453.15625 107.71875 441.308594 107.257812 434.71875 107.332031 C 434.027344 107.042969 435.347656 103.929688 435.9375 103.445312 C 437.449219 103.398438 438.945312 103.164062 440.394531 102.746094 C 442.75 102.164062 443.03125 101.40625 443.328125 97.90625 C 443.523438 94.894531 443.523438 84.105469 443.523438 76.429688 C 443.523438 65.933594 443.625 58.84375 443.523438 55.34375 C 443.425781 52.625 442.441406 51.746094 440.574219 51.261719 C 439.101562 50.96875 436.648438 50.679688 434.683594 50.386719 C 434.191406 49.902344 435.703125 46.984375 436.191406 46.597656 "/>
<path style=" stroke:none;fill-rule:nonzero;fill:rgb(12.941176%,19.215686%,23.529412%);fill-opacity:1;" d="M 83.699219 107.410156 C 83.445312 106.789062 83.34375 106.113281 83.398438 105.445312 C 83.375 104.988281 83.480469 104.535156 83.699219 104.136719 C 84.96875 103.953125 86.230469 103.695312 87.46875 103.367188 C 89.210938 102.933594 89.863281 101.988281 89.964844 99.769531 C 90.25 94.53125 90.265625 84.699219 90.164062 77.789062 L 90.164062 77.589844 C 90.164062 76.84375 90.164062 75.832031 89.246094 75.117188 C 87.628906 74.105469 85.875 73.328125 84.035156 72.816406 C 83.210938 72.574219 82.753906 72.140625 82.777344 71.636719 C 82.800781 71.128906 83.320312 70.53125 84.394531 70.320312 C 87.238281 70.03125 94.703125 68.25 97.632812 66.898438 C 97.933594 67.289062 98.074219 67.785156 98.023438 68.277344 C 98.023438 68.582031 97.976562 68.902344 97.945312 69.234375 C 97.863281 70.210938 97.769531 71.320312 97.769531 72.421875 C 97.808594 72.695312 97.996094 72.925781 98.257812 73.015625 C 98.519531 73.101562 98.808594 73.035156 99.003906 72.839844 C 104.582031 68.464844 109.582031 66.90625 112.144531 66.90625 C 116.363281 66.90625 119.648438 68.921875 122.191406 73.070312 C 122.3125 73.273438 122.527344 73.402344 122.761719 73.40625 C 122.976562 73.40625 123.175781 73.296875 123.296875 73.121094 C 128.425781 69.230469 133.507812 66.90625 136.914062 66.90625 C 144.953125 66.90625 149.761719 72.929688 149.761719 83.007812 C 149.761719 85.90625 149.734375 89.582031 149.707031 93.007812 C 149.683594 96.015625 149.660156 98.835938 149.660156 100.785156 C 149.660156 101.246094 150.292969 102.570312 151.246094 102.832031 C 152.425781 103.40625 154.121094 103.703125 156.269531 104.070312 L 156.351562 104.070312 C 156.515625 104.648438 156.171875 106.898438 155.847656 107.359375 C 155.3125 107.359375 154.578125 107.3125 153.65625 107.265625 C 151.988281 107.183594 149.695312 107.070312 147.035156 107.070312 C 141.6875 107.070312 138.894531 107.171875 136.226562 107.34375 C 136.023438 106.679688 135.957031 104.527344 136.199219 104.074219 C 137.304688 103.902344 138.398438 103.664062 139.476562 103.363281 C 141.175781 102.800781 141.667969 102.027344 141.773438 99.769531 C 141.816406 98.164062 142.125 84.019531 141.578125 80.660156 C 141.070312 77.179688 138.449219 73.101562 132.710938 73.101562 C 130.582031 73.101562 127.148438 73.992188 123.871094 76.476562 C 123.667969 76.707031 123.554688 77 123.550781 77.308594 L 123.550781 77.375 C 123.9375 79.1875 123.9375 81.304688 123.9375 84.503906 C 123.9375 86.34375 123.9375 88.261719 123.914062 90.179688 C 123.890625 94.078125 123.871094 97.757812 123.9375 100.542969 C 123.9375 102.4375 125.082031 102.894531 126.003906 103.257812 C 126.507812 103.367188 126.902344 103.464844 127.304688 103.554688 C 128.070312 103.742188 128.871094 103.9375 130.0625 104.125 C 130.238281 104.933594 130.222656 105.773438 130.015625 106.574219 C 129.96875 106.875 129.851562 107.160156 129.671875 107.40625 C 126.699219 107.304688 123.652344 107.21875 119.25 107.21875 C 117.914062 107.21875 115.738281 107.273438 113.816406 107.324219 C 112.257812 107.363281 110.785156 107.40625 109.945312 107.410156 C 109.71875 106.875 109.621094 106.296875 109.652344 105.71875 C 109.605469 105.171875 109.710938 104.625 109.960938 104.136719 L 111.144531 103.917969 C 112.171875 103.734375 113.066406 103.578125 113.902344 103.367188 C 115.355469 102.90625 115.902344 102.117188 116.007812 100.261719 C 116.292969 95.9375 116.515625 83.476562 115.902344 80.355469 C 114.863281 75.351562 112.015625 72.8125 107.433594 72.8125 C 104.753906 72.8125 101.363281 74.105469 98.59375 76.179688 C 98.054688 76.703125 97.757812 77.429688 97.777344 78.179688 C 97.777344 79.667969 97.777344 81.433594 97.777344 83.328125 C 97.777344 89.585938 97.738281 97.371094 97.890625 100.738281 C 97.980469 101.78125 98.347656 103.011719 100.296875 103.464844 C 100.722656 103.585938 101.460938 103.707031 102.316406 103.847656 C 102.808594 103.933594 103.34375 104.019531 103.902344 104.121094 C 104.078125 105.222656 103.988281 106.351562 103.640625 107.410156 C 102.785156 107.410156 101.730469 107.355469 100.527344 107.304688 C 98.683594 107.222656 96.386719 107.121094 93.785156 107.121094 C 90.714844 107.121094 88.574219 107.222656 86.859375 107.304688 C 85.703125 107.359375 84.707031 107.40625 83.707031 107.410156 "/>
<path style=" stroke:none;fill-rule:nonzero;fill:rgb(12.941176%,19.215686%,23.529412%);fill-opacity:1;" d="M 182.347656 71.066406 C 180.6875 71.03125 179.054688 71.492188 177.65625 72.386719 C 174.242188 74.460938 172.503906 78.605469 172.503906 84.695312 C 172.503906 96.09375 178.214844 104.054688 186.386719 104.054688 C 188.578125 104.125 190.71875 103.371094 192.378906 101.9375 C 194.890625 99.890625 196.222656 95.703125 196.222656 89.84375 C 196.222656 78.613281 190.644531 71.066406 182.339844 71.066406 M 183.914062 108.285156 C 169.144531 108.285156 163.886719 97.449219 163.886719 87.316406 C 163.886719 80.238281 166.78125 74.703125 172.492188 70.863281 C 176.488281 68.386719 181.078125 67.03125 185.78125 66.933594 C 197.046875 66.933594 204.917969 75.035156 204.917969 86.640625 C 204.917969 94.527344 201.773438 100.753906 195.828125 104.644531 C 192.96875 106.394531 188.007812 108.285156 183.914062 108.285156 "/>
<path style=" stroke:none;fill-rule:nonzero;fill:rgb(12.941176%,19.215686%,23.529412%);fill-opacity:1;" d="M 332.683594 71.066406 C 331.019531 71.027344 329.382812 71.488281 327.980469 72.386719 C 324.566406 74.460938 322.828125 78.605469 322.828125 84.695312 C 322.828125 96.09375 328.539062 104.054688 336.710938 104.054688 C 338.910156 104.128906 341.054688 103.375 342.71875 101.9375 C 345.230469 99.890625 346.5625 95.703125 346.5625 89.84375 C 346.5625 78.613281 340.984375 71.066406 332.683594 71.066406 M 334.257812 108.285156 C 319.488281 108.285156 314.230469 97.449219 314.230469 87.320312 C 314.230469 80.234375 317.125 74.703125 322.839844 70.863281 C 326.835938 68.386719 331.421875 67.03125 336.125 66.933594 C 347.390625 66.933594 355.261719 75.039062 355.261719 86.636719 C 355.261719 94.53125 352.117188 100.753906 346.171875 104.640625 C 343.3125 106.394531 338.351562 108.285156 334.257812 108.285156 "/>
<path style=" stroke:none;fill-rule:nonzero;fill:rgb(12.941176%,19.215686%,23.529412%);fill-opacity:1;" d="M 282.964844 70.679688 C 278.414062 70.679688 275.46875 74.273438 275.46875 79.832031 C 275.46875 85.394531 278.003906 92.003906 285.128906 92.003906 C 286.355469 92.003906 288.570312 91.460938 289.671875 90.253906 C 291.328125 88.730469 292.429688 85.582031 292.429688 82.261719 C 292.429688 75.007812 288.898438 70.679688 282.988281 70.679688 M 282.398438 109.0625 C 281.113281 109.046875 279.84375 109.363281 278.71875 109.980469 C 275.117188 112.28125 273.445312 114.582031 273.445312 117.253906 C 273.445312 119.757812 274.417969 121.75 276.503906 123.515625 C 279.035156 125.65625 282.449219 126.703125 286.933594 126.703125 C 295.761719 126.703125 299.71875 121.957031 299.71875 117.253906 C 299.71875 113.980469 298.074219 111.785156 294.695312 110.542969 C 292.089844 109.589844 287.738281 109.066406 282.410156 109.066406 M 283 131.605469 C 277.703125 131.605469 273.882812 130.488281 270.621094 127.976562 C 267.449219 125.53125 266.023438 121.894531 266.023438 119.382812 C 266.054688 117.765625 266.671875 116.214844 267.761719 115.015625 C 268.679688 113.964844 270.820312 112 275.765625 108.601562 C 275.921875 108.535156 276.023438 108.378906 276.023438 108.210938 C 276.027344 108.019531 275.894531 107.851562 275.710938 107.804688 C 271.636719 106.246094 270.410156 103.664062 270.039062 102.285156 C 270.039062 102.234375 270.039062 102.15625 269.996094 102.070312 C 269.882812 101.527344 269.769531 101.011719 270.511719 100.480469 C 271.082031 100.078125 271.992188 99.535156 272.96875 98.960938 C 274.34375 98.199219 275.664062 97.339844 276.917969 96.386719 C 277.054688 96.242188 277.117188 96.039062 277.085938 95.84375 C 277.050781 95.644531 276.929688 95.472656 276.753906 95.375 C 270.726562 93.351562 267.691406 88.875 267.691406 82.035156 C 267.652344 77.707031 269.730469 73.632812 273.257812 71.121094 C 275.683594 69.203125 281.769531 66.898438 285.710938 66.898438 L 285.941406 66.898438 C 289.992188 66.996094 292.28125 67.84375 295.445312 69.015625 C 297.246094 69.664062 299.152344 69.96875 301.066406 69.90625 C 304.417969 69.90625 305.886719 68.84375 307.148438 67.605469 C 307.351562 68.164062 307.460938 68.75 307.46875 69.34375 C 307.546875 70.757812 307.160156 72.160156 306.375 73.335938 C 305.6875 74.289062 304.074219 74.980469 302.597656 74.980469 C 302.445312 74.980469 302.296875 74.980469 302.136719 74.957031 C 301.359375 74.902344 300.589844 74.773438 299.835938 74.574219 L 299.460938 74.707031 C 299.339844 74.882812 299.417969 75.078125 299.515625 75.324219 C 299.539062 75.375 299.558594 75.425781 299.570312 75.476562 C 299.839844 76.703125 300.023438 77.949219 300.117188 79.203125 C 300.117188 86.355469 297.296875 89.46875 294.25 91.777344 C 291.300781 93.992188 287.796875 95.347656 284.128906 95.699219 C 284.050781 95.699219 283.667969 95.730469 282.949219 95.796875 C 282.488281 95.835938 281.890625 95.890625 281.804688 95.890625 L 281.71875 95.890625 C 281.054688 96.074219 279.324219 96.898438 279.324219 98.429688 C 279.324219 99.699219 280.105469 101.277344 283.847656 101.5625 L 286.265625 101.734375 C 291.199219 102.078125 297.359375 102.507812 300.257812 103.484375 C 304.199219 104.871094 306.808594 108.632812 306.726562 112.808594 C 306.726562 119.226562 302.164062 125.261719 294.523438 128.953125 C 290.921875 130.671875 286.976562 131.558594 282.980469 131.542969 "/>
<path style=" stroke:none;fill-rule:nonzero;fill:rgb(12.941176%,19.215686%,23.529412%);fill-opacity:1;" d="M 260.394531 103.988281 C 258.234375 103.699219 256.65625 103.402344 254.792969 102.53125 C 254.425781 102.152344 254.1875 101.667969 254.101562 101.148438 C 253.90625 98.136719 253.90625 89.390625 253.90625 83.667969 C 253.90625 79 253.121094 74.929688 251.144531 72.007812 C 248.785156 68.699219 245.445312 66.761719 241.121094 66.761719 C 237.289062 66.761719 232.179688 69.382812 227.953125 72.980469 C 227.855469 73.074219 227.207031 73.691406 227.21875 72.734375 C 227.234375 71.777344 227.378906 69.835938 227.472656 68.59375 C 227.554688 67.925781 227.316406 67.257812 226.828125 66.792969 C 224.066406 68.171875 216.324219 70.011719 213.460938 70.292969 C 211.371094 70.699219 210.84375 72.707031 213.074219 73.402344 L 213.105469 73.402344 C 214.890625 73.894531 216.597656 74.644531 218.164062 75.628906 C 219.050781 76.308594 218.953125 77.28125 218.953125 78.058594 C 219.050781 84.566406 219.050781 94.574219 218.753906 100.019531 C 218.65625 102.15625 218.066406 102.933594 216.492188 103.324219 L 216.636719 103.273438 C 215.441406 103.574219 214.226562 103.800781 213 103.957031 C 212.507812 104.4375 212.507812 107.257812 213 107.84375 C 213.984375 107.84375 218.980469 107.550781 223.121094 107.550781 C 228.816406 107.550781 231.765625 107.84375 233.242188 107.84375 C 233.835938 107.160156 234.027344 104.539062 233.636719 103.957031 C 232.277344 103.894531 230.925781 103.699219 229.601562 103.371094 C 228.035156 102.984375 227.636719 102.203125 227.539062 100.460938 C 227.347656 95.886719 227.347656 86.171875 227.347656 79.5625 C 227.347656 77.722656 227.835938 76.84375 228.425781 76.339844 C 230.386719 74.59375 233.636719 73.429688 236.484375 73.429688 C 239.242188 73.429688 241.082031 74.304688 242.464844 75.46875 C 244.070312 76.871094 245.078125 78.835938 245.277344 80.960938 C 245.671875 84.640625 245.570312 92.042969 245.570312 98.441406 C 245.570312 101.941406 245.277344 102.820312 244 103.207031 C 243.410156 103.496094 241.839844 103.789062 239.96875 103.984375 C 239.382812 104.566406 239.574219 107.285156 239.96875 107.871094 C 242.523438 107.871094 245.492188 107.582031 249.796875 107.582031 C 255.203125 107.582031 258.644531 107.871094 260.019531 107.871094 C 260.605469 107.1875 260.804688 104.648438 260.414062 103.984375 "/>
</g>
</svg>
