<?xml version="1.0" encoding="UTF-8"?>
<svg xmlns="http://www.w3.org/2000/svg" xmlns:xlink="http://www.w3.org/1999/xlink" width="512px" height="512px" viewBox="0 0 512 154" version="1.1">
<defs>
<radialGradient id="radial0" gradientUnits="userSpaceOnUse" cx="0" cy="0" fx="0" fy="0" r="1" gradientTransform="matrix(-76.773014,-86.935017,132.049105,-116.441605,117.367695,120.05378)">
<stop offset="0" style="stop-color:rgb(20%,100%,80%);stop-opacity:1;"/>
<stop offset="1" style="stop-color:rgb(5.882353%,49.803922%,100%);stop-opacity:1;"/>
</radialGradient>
</defs>
<g id="surface1">
<path style=" stroke:none;fill-rule:nonzero;fill:rgb(22.352941%,41.176471%,57.647059%);fill-opacity:1;" d="M 242.917969 55.078125 C 248.035156 55.078125 252.144531 56.71875 255.242188 59.996094 C 258.339844 63.273438 259.886719 67.636719 259.886719 73.089844 L 259.886719 99.800781 L 246.488281 99.800781 L 246.488281 74.222656 C 246.488281 72.019531 245.9375 70.277344 244.835938 69.003906 C 243.734375 67.730469 242.140625 67.085938 240.058594 67.085938 C 237.851562 67.085938 236.140625 67.8125 234.925781 69.261719 C 233.703125 70.710938 233.09375 72.714844 233.09375 75.265625 L 233.09375 99.800781 L 219.695312 99.800781 L 219.695312 74.222656 C 219.695312 72.019531 219.144531 70.277344 218.042969 69.003906 C 216.941406 67.730469 215.347656 67.085938 213.261719 67.085938 C 211.058594 67.085938 209.347656 67.8125 208.128906 69.261719 C 206.90625 70.710938 206.296875 72.714844 206.296875 75.265625 L 206.296875 99.800781 L 192.902344 99.800781 L 192.902344 56.292969 L 206.296875 56.292969 L 206.296875 60.296875 C 208.738281 56.816406 212.730469 55.078125 218.265625 55.078125 C 223.445312 55.078125 227.34375 56.996094 229.964844 60.824219 C 232.703125 56.996094 237.023438 55.078125 242.917969 55.078125 Z M 242.917969 55.078125 "/>
<path style=" stroke:none;fill-rule:nonzero;fill:rgb(22.352941%,41.176471%,57.647059%);fill-opacity:1;" d="M 306.136719 94.363281 C 301.550781 98.800781 295.953125 101.023438 289.347656 101.023438 C 282.742188 101.023438 277.144531 98.804688 272.558594 94.363281 C 267.972656 89.929688 265.679688 84.492188 265.679688 78.050781 C 265.679688 71.609375 267.972656 66.171875 272.558594 61.738281 C 277.144531 57.300781 282.742188 55.082031 289.347656 55.082031 C 295.953125 55.082031 301.550781 57.300781 306.136719 61.738281 C 310.722656 66.171875 313.015625 71.609375 313.015625 78.050781 C 313.015625 84.492188 310.722656 89.929688 306.136719 94.363281 Z M 282.023438 85.445312 C 283.988281 87.359375 286.429688 88.3125 289.347656 88.3125 C 292.265625 88.3125 294.703125 87.355469 296.671875 85.445312 C 298.632812 83.527344 299.617188 81.066406 299.617188 78.046875 C 299.617188 75.023438 298.632812 72.5625 296.671875 70.648438 C 294.707031 68.730469 292.265625 67.777344 289.347656 67.777344 C 286.429688 67.777344 283.988281 68.734375 282.023438 70.648438 C 280.0625 72.558594 279.074219 75.03125 279.074219 78.046875 C 279.074219 81.0625 280.0625 83.527344 282.023438 85.445312 Z M 282.023438 85.445312 "/>
<path style=" stroke:none;fill-rule:nonzero;fill:rgb(22.352941%,41.176471%,57.647059%);fill-opacity:1;" d="M 332.867188 99.808594 L 318.632812 99.808594 L 318.632812 56.0625 L 332.15625 56.0625 L 332.15625 66.605469 C 334.304688 58.535156 339.945312 54.960938 345.320312 54.960938 C 347.550781 54.960938 349.972656 55.171875 352.398438 56.628906 L 348.519531 70.101562 C 345.128906 68.789062 343.1875 68.804688 341.558594 68.804688 C 336.1875 68.804688 332.875 71.921875 332.875 84.757812 L 332.875 99.808594 Z M 332.867188 99.808594 "/>
<path style=" stroke:none;fill-rule:nonzero;fill:rgb(22.352941%,41.176471%,57.647059%);fill-opacity:1;" d="M 386.515625 56.292969 L 399.914062 56.292969 L 399.914062 99.800781 L 386.515625 99.800781 L 386.515625 94.652344 C 384.824219 99.027344 378.925781 101.015625 373.210938 101.015625 C 367.496094 101.015625 362.285156 98.800781 358.117188 94.359375 C 353.949219 89.921875 351.863281 84.484375 351.863281 78.046875 C 351.863281 71.605469 353.949219 66.167969 358.117188 61.730469 C 362.285156 57.296875 367.316406 54.976562 373.210938 55.078125 C 383.371094 55.253906 386.765625 60.117188 386.515625 62.550781 Z M 368.207031 85.789062 C 370.171875 87.707031 372.730469 88.660156 375.890625 88.660156 C 379.050781 88.660156 381.605469 87.699219 383.574219 85.789062 C 385.542969 83.878906 386.519531 81.292969 386.519531 78.046875 C 386.519531 74.796875 385.539062 72.214844 383.574219 70.300781 C 381.609375 68.390625 379.046875 67.433594 375.890625 67.433594 C 372.734375 67.433594 370.175781 68.390625 368.207031 70.300781 C 366.246094 72.21875 365.261719 74.796875 365.261719 78.046875 C 365.261719 81.292969 366.246094 83.878906 368.207031 85.789062 Z M 368.207031 85.789062 "/>
<path style=" stroke:none;fill-rule:nonzero;fill:rgb(22.352941%,41.176471%,57.647059%);fill-opacity:1;" d="M 409.816406 99.800781 L 409.816406 36.285156 L 423.214844 36.285156 L 423.214844 99.800781 Z M 409.816406 99.800781 "/>
<path style=" stroke:none;fill-rule:nonzero;fill:rgb(22.352941%,41.176471%,57.647059%);fill-opacity:1;" d="M 445.65625 50.160156 C 444.074219 51.699219 442.183594 52.464844 439.984375 52.464844 C 437.785156 52.464844 435.886719 51.699219 434.3125 50.160156 C 432.734375 48.625 431.949219 46.78125 431.949219 44.636719 C 431.949219 42.492188 432.738281 40.648438 434.3125 39.109375 C 435.886719 37.574219 437.777344 36.804688 439.984375 36.804688 C 442.191406 36.804688 444.074219 37.574219 445.65625 39.109375 C 447.230469 40.648438 448.019531 42.492188 448.019531 44.636719 C 448.019531 46.78125 447.230469 48.625 445.65625 50.160156 Z M 433.285156 99.800781 L 433.285156 56.292969 L 446.683594 56.292969 L 446.683594 99.800781 Z M 433.285156 99.800781 "/>
<path style=" stroke:none;fill-rule:nonzero;fill:rgb(22.352941%,41.176471%,57.647059%);fill-opacity:1;" d="M 469.207031 69 C 469.207031 69.871094 469.96875 70.578125 471.484375 71.128906 C 473.003906 71.679688 474.835938 72.234375 476.976562 72.78125 C 479.117188 73.332031 481.261719 74.042969 483.410156 74.914062 C 485.550781 75.785156 487.382812 77.21875 488.898438 79.21875 C 490.417969 81.21875 491.179688 83.726562 491.179688 86.742188 C 491.179688 91.441406 489.390625 94.996094 485.816406 97.398438 C 482.246094 99.808594 477.839844 101.007812 472.601562 101.007812 C 463.191406 101.007812 456.792969 97.558594 453.402344 90.652344 L 465.007812 84.214844 C 466.203125 87.636719 468.726562 89.34375 472.601562 89.34375 C 475.8125 89.34375 477.421875 88.445312 477.421875 86.644531 C 477.421875 85.773438 476.660156 85.050781 475.144531 84.472656 C 473.628906 83.890625 471.796875 83.328125 469.652344 82.773438 C 467.511719 82.222656 465.367188 81.5 463.222656 80.597656 C 461.078125 79.699219 459.246094 78.292969 457.730469 76.378906 C 456.210938 74.460938 455.449219 72.113281 455.449219 69.328125 C 455.449219 64.804688 457.132812 61.292969 460.496094 58.800781 C 463.859375 56.304688 468.015625 55.058594 472.953125 55.058594 C 476.648438 55.058594 480.011719 55.855469 483.046875 57.453125 C 486.078125 59.046875 488.523438 61.351562 490.371094 64.367188 L 478.9375 70.371094 C 477.507812 67.816406 475.511719 66.542969 472.953125 66.542969 C 470.394531 66.542969 469.203125 67.355469 469.203125 68.980469 Z M 469.207031 69 "/>
<path style=" stroke:none;fill-rule:nonzero;fill:url(#radial0);" d="M 155.960938 44.652344 C 149.757812 31.519531 137.105469 22.429688 122.839844 21.355469 C 115.851562 20.703125 108.640625 21.890625 102.339844 25.074219 C 98.109375 27.179688 94.34375 30.101562 91.175781 33.582031 C 84.648438 26.15625 75.425781 21.296875 65.46875 20.796875 C 44.542969 19.53125 26.503906 33.125 22.109375 54.21875 C 19.4375 66.851562 22.351562 80.046875 28.132812 91.160156 C 33.90625 102.125 42.328125 111.871094 53.285156 117.597656 C 60.933594 121.332031 68.101562 111.859375 62.507812 105.238281 C 60.726562 103.238281 59.082031 101.109375 57.585938 98.832031 C 56.195312 96.722656 54.945312 94.503906 53.808594 92.234375 C 50.660156 85.757812 48.308594 78.46875 47.84375 71.285156 C 47.566406 66.722656 48.164062 62.789062 50.054688 58.816406 C 51.84375 55.113281 54.738281 51.929688 58.542969 50.429688 C 64.460938 48.179688 70.636719 49.390625 75.136719 54.253906 C 78.058594 57.269531 79.394531 61.496094 80.886719 65.394531 C 81 65.675781 81.121094 65.949219 81.246094 66.214844 C 84.21875 75.410156 97.835938 75.644531 100.382812 65.1875 C 100.457031 64.832031 100.535156 64.472656 100.617188 64.105469 C 100.632812 64.046875 100.648438 63.996094 100.664062 63.9375 C 100.675781 63.878906 100.6875 63.820312 100.699219 63.757812 C 100.917969 62.824219 101.171875 61.890625 101.496094 61.019531 C 102.507812 58.214844 104.195312 55.507812 106.222656 53.441406 C 109.273438 50.324219 113.167969 48.441406 117.425781 48.859375 C 119.8125 48.996094 122.5 49.648438 124.441406 50.703125 C 135.316406 56.621094 134.183594 72.167969 129.519531 82.410156 C 126.242188 89.585938 121 95.589844 115.183594 100.777344 C 113.742188 102.054688 112.101562 103.464844 110.613281 104.65625 C 103.792969 109.96875 102.046875 120.027344 107.4375 127.238281 C 113.21875 135.164062 124.734375 135.546875 131.351562 128.496094 C 132.648438 127.210938 133.90625 125.871094 135.140625 124.527344 C 147.621094 110.542969 158.960938 89.789062 160.726562 70.664062 C 161.453125 61.722656 159.867188 52.789062 155.957031 44.652344 Z M 155.960938 44.652344 "/>
</g>
</svg>
