<?xml version="1.0" encoding="UTF-8"?>
<svg xmlns="http://www.w3.org/2000/svg" xmlns:xlink="http://www.w3.org/1999/xlink" width="512px" height="512px" viewBox="0 0 512 512" version="1.1">
<g id="surface1">
<path style=" stroke:none;fill-rule:nonzero;fill:rgb(0%,0%,0%);fill-opacity:1;" d="M 121.054688 183.359375 L 217.417969 183.359375 L 217.417969 190.984375 L 129.886719 190.984375 L 129.886719 248.351562 L 212.199219 248.351562 L 212.199219 255.972656 L 129.886719 255.972656 L 129.886719 318.957031 L 218.421875 318.957031 L 218.421875 326.578125 L 121.054688 326.578125 Z M 226.050781 183.359375 L 236.289062 183.359375 L 281.660156 246.34375 L 328.035156 183.359375 L 391.109375 103.355469 L 287.480469 252.964844 L 340.882812 326.578125 L 330.242188 326.578125 L 281.660156 259.582031 L 232.875 326.578125 L 222.4375 326.578125 L 276.238281 252.964844 Z M 344.695312 190.984375 L 344.695312 183.359375 L 454.507812 183.359375 L 454.507812 190.984375 L 403.917969 190.984375 L 403.917969 326.578125 L 395.085938 326.578125 L 395.085938 190.984375 Z M 344.695312 190.984375 "/>
<path style=" stroke:none;fill-rule:nonzero;fill:rgb(0%,0%,0%);fill-opacity:1;" d="M 0.5 183.359375 L 11.542969 183.359375 L 163.800781 410.101562 L 100.878906 326.578125 L 9.738281 194.191406 L 9.335938 326.578125 L 0.5 326.578125 Z M 0.5 183.359375 "/>
<path style=" stroke:none;fill-rule:nonzero;fill:rgb(0%,0%,0%);fill-opacity:1;" d="M 453.617188 316.65625 C 455.445312 316.65625 456.777344 315.261719 456.777344 313.464844 C 456.777344 311.667969 455.445312 310.273438 453.617188 310.273438 C 451.8125 310.273438 450.460938 311.667969 450.460938 313.464844 C 450.460938 315.261719 451.8125 316.65625 453.617188 316.65625 Z M 462.296875 308.261719 C 462.296875 313.574219 466.144531 317.039062 471.75 317.039062 C 477.722656 317.039062 481.332031 313.464844 481.332031 307.257812 L 481.332031 285.398438 L 476.519531 285.398438 L 476.519531 307.234375 C 476.519531 310.683594 474.78125 312.523438 471.707031 312.523438 C 468.957031 312.523438 467.089844 310.8125 467.023438 308.261719 Z M 487.628906 307.984375 C 487.972656 313.507812 492.589844 317.039062 499.464844 317.039062 C 506.8125 317.039062 511.410156 313.335938 511.410156 307.429688 C 511.410156 302.78125 508.789062 300.214844 502.429688 298.734375 L 499.015625 297.902344 C 494.976562 296.957031 493.34375 295.695312 493.34375 293.492188 C 493.34375 290.707031 495.878906 288.886719 499.679688 288.886719 C 503.289062 288.886719 505.78125 290.664062 506.234375 293.511719 L 510.917969 293.511719 C 510.636719 288.308594 506.039062 284.648438 499.746094 284.648438 C 492.976562 284.648438 488.464844 288.308594 488.464844 293.8125 C 488.464844 298.351562 491.023438 301.046875 496.628906 302.355469 L 500.625 303.316406 C 504.730469 304.28125 506.535156 305.695312 506.535156 308.046875 C 506.535156 310.789062 503.699219 312.78125 499.832031 312.78125 C 495.683594 312.78125 492.804688 310.917969 492.398438 307.984375 Z M 487.628906 307.984375 "/>
</g>
</svg>
