<?xml version="1.0" encoding="UTF-8"?>
<svg xmlns="http://www.w3.org/2000/svg" xmlns:xlink="http://www.w3.org/1999/xlink" width="512px" height="512px" viewBox="0 0 512 512" version="1.1">
<defs>
<clipPath id="clip1">
  <path d="M 134 170 L 244 170 L 244 296 L 134 296 Z M 134 170 "/>
</clipPath>
<clipPath id="clip2">
  <path d="M 186.023438 171.652344 L 137.261719 199.796875 C 135.433594 200.851562 134.3125 202.796875 134.3125 204.898438 L 134.3125 261.226562 C 134.3125 263.328125 135.433594 265.273438 137.261719 266.324219 L 186.027344 294.492188 C 187.847656 295.542969 190.097656 295.542969 191.917969 294.492188 L 240.671875 266.324219 C 242.492188 265.273438 243.613281 263.328125 243.613281 261.226562 L 243.613281 204.898438 C 243.613281 202.796875 242.492188 200.851562 240.660156 199.796875 L 191.914062 171.652344 C 190.996094 171.128906 189.980469 170.867188 188.960938 170.867188 C 187.941406 170.867188 186.925781 171.128906 186.007812 171.652344 "/>
</clipPath>
<linearGradient id="linear0" gradientUnits="userSpaceOnUse" x1="-0.348" y1="0" x2="1.251" y2="0" gradientTransform="matrix(-44.056415,89.87474,-89.87474,-44.056415,208.815322,192.515256)">
<stop offset="0.3" style="stop-color:rgb(24.313725%,52.54902%,23.921569%);stop-opacity:1;"/>
<stop offset="0.5" style="stop-color:rgb(33.333333%,57.647059%,30.980392%);stop-opacity:1;"/>
<stop offset="0.8" style="stop-color:rgb(35.294118%,67.843137%,27.058824%);stop-opacity:1;"/>
</linearGradient>
<clipPath id="clip3">
  <path d="M 135 171 L 243 171 L 243 296 L 135 296 Z M 135 171 "/>
</clipPath>
<clipPath id="clip4">
  <path d="M 135.523438 264.800781 C 135.988281 265.40625 136.574219 265.933594 137.257812 266.324219 L 179.085938 290.488281 L 186.054688 294.492188 C 187.097656 295.09375 188.285156 295.347656 189.449219 295.261719 C 189.839844 295.230469 190.226562 295.15625 190.609375 295.050781 L 242.035156 200.882812 C 241.640625 200.453125 241.183594 200.097656 240.664062 199.792969 L 208.738281 181.355469 L 191.859375 171.648438 C 191.382812 171.367188 190.863281 171.171875 190.332031 171.035156 Z M 135.523438 264.800781 "/>
</clipPath>
<linearGradient id="linear1" gradientUnits="userSpaceOnUse" x1="-0.456" y1="0" x2="0.582" y2="0" gradientTransform="matrix(123.617154,-91.338396,91.338396,123.617154,181.575846,239.697148)">
<stop offset="0.57" style="stop-color:rgb(24.313725%,52.54902%,23.921569%);stop-opacity:1;"/>
<stop offset="0.72" style="stop-color:rgb(38.039216%,59.607843%,34.117647%);stop-opacity:1;"/>
<stop offset="1" style="stop-color:rgb(46.27451%,67.45098%,39.215686%);stop-opacity:1;"/>
</linearGradient>
<clipPath id="clip5">
  <path d="M 137 170 L 244 170 L 244 296 L 137 296 Z M 137 170 "/>
</clipPath>
<clipPath id="clip6">
  <path d="M 188.378906 170.898438 C 187.558594 170.980469 186.761719 171.234375 186.023438 171.652344 L 137.402344 199.71875 L 189.832031 295.214844 C 190.558594 295.109375 191.277344 294.867188 191.925781 294.492188 L 240.6875 266.324219 C 242.191406 265.453125 243.222656 263.976562 243.535156 262.300781 L 190.085938 170.996094 C 189.691406 170.917969 189.300781 170.878906 188.894531 170.878906 C 188.730469 170.878906 188.570312 170.886719 188.40625 170.898438 "/>
</clipPath>
<linearGradient id="linear2" gradientUnits="userSpaceOnUse" x1="0.043" y1="0" x2="0.984" y2="0" gradientTransform="matrix(112.750648,0,0,112.750648,132.587364,233.050451)">
<stop offset="0.16" style="stop-color:rgb(41.960784%,74.901961%,27.843137%);stop-opacity:1;"/>
<stop offset="0.38" style="stop-color:rgb(47.45098%,70.588235%,38.039216%);stop-opacity:1;"/>
<stop offset="0.47" style="stop-color:rgb(45.882353%,67.45098%,39.215686%);stop-opacity:1;"/>
<stop offset="0.7" style="stop-color:rgb(39.607843%,61.960784%,35.294118%);stop-opacity:1;"/>
<stop offset="0.9" style="stop-color:rgb(24.313725%,52.54902%,23.921569%);stop-opacity:1;"/>
</linearGradient>
</defs>
<g id="surface1">
<path style=" stroke:none;fill-rule:nonzero;fill:rgb(40.784314%,62.352941%,38.823529%);fill-opacity:1;" d="M 253.0625 412.789062 C 251.371094 412.789062 249.695312 412.34375 248.214844 411.492188 L 232.777344 402.351562 C 230.472656 401.0625 231.597656 400.609375 232.355469 400.34375 C 235.429688 399.269531 236.054688 399.027344 239.335938 397.160156 C 239.679688 396.964844 240.132812 397.035156 240.484375 397.242188 L 252.34375 404.28125 C 252.773438 404.511719 253.378906 404.511719 253.777344 404.28125 L 300.015625 377.589844 C 300.441406 377.347656 300.722656 376.847656 300.722656 376.339844 L 300.722656 322.984375 C 300.722656 322.453125 300.441406 321.976562 300.003906 321.710938 L 253.785156 295.042969 C 253.359375 294.789062 252.789062 294.789062 252.363281 295.042969 L 206.152344 321.710938 C 205.703125 321.964844 205.417969 322.464844 205.417969 322.972656 L 205.417969 376.328125 C 205.417969 376.839844 205.695312 377.324219 206.136719 377.566406 L 218.796875 384.882812 C 225.671875 388.320312 229.875 384.269531 229.875 380.195312 L 229.875 327.53125 C 229.875 326.78125 230.464844 326.203125 231.21875 326.203125 L 237.074219 326.203125 C 237.804688 326.203125 238.40625 326.78125 238.40625 327.53125 L 238.40625 380.21875 C 238.40625 389.382812 233.40625 394.652344 224.714844 394.652344 C 222.039062 394.652344 219.933594 394.652344 214.054688 391.757812 L 201.925781 384.765625 C 198.925781 383.03125 197.074219 379.789062 197.074219 376.328125 L 197.074219 322.972656 C 197.074219 319.5 198.925781 316.257812 201.925781 314.546875 L 248.207031 287.84375 C 251.136719 286.191406 255.027344 286.191406 257.929688 287.84375 L 304.15625 314.558594 C 307.144531 316.28125 309.007812 319.511719 309.007812 322.984375 L 309.007812 376.339844 C 309.007812 379.800781 307.144531 383.03125 304.15625 384.765625 L 257.929688 411.46875 C 256.449219 412.324219 254.769531 412.765625 253.058594 412.765625 "/>
<path style=" stroke:none;fill-rule:nonzero;fill:rgb(40.784314%,62.352941%,38.823529%);fill-opacity:1;" d="M 267.34375 376.023438 C 247.113281 376.023438 242.871094 366.734375 242.871094 358.945312 C 242.871094 358.203125 243.46875 357.613281 244.210938 357.613281 L 250.183594 357.613281 C 250.84375 357.613281 251.398438 358.09375 251.503906 358.746094 C 252.40625 364.832031 255.089844 367.902344 267.324219 367.902344 C 277.070312 367.902344 281.210938 365.699219 281.210938 360.53125 C 281.210938 357.558594 280.03125 355.347656 264.894531 353.867188 C 252.230469 352.617188 244.40625 349.828125 244.40625 339.699219 C 244.40625 330.371094 252.277344 324.816406 265.460938 324.816406 C 280.265625 324.816406 287.601562 329.953125 288.527344 340.996094 C 288.5625 341.378906 288.421875 341.746094 288.167969 342.027344 C 287.914062 342.292969 287.554688 342.453125 287.183594 342.453125 L 281.179688 342.453125 C 280.554688 342.453125 280.007812 342.015625 279.882812 341.414062 C 278.433594 335.011719 274.941406 332.964844 265.4375 332.964844 C 254.800781 332.964844 253.5625 336.667969 253.5625 339.445312 C 253.5625 342.8125 255.019531 343.796875 269.371094 345.695312 C 283.585938 347.582031 290.332031 350.242188 290.332031 360.230469 C 290.332031 370.300781 281.929688 376.078125 267.277344 376.078125 M 323.597656 319.492188 L 325.148438 319.492188 C 326.421875 319.492188 326.664062 318.601562 326.664062 318.078125 C 326.664062 316.714844 325.726562 316.714844 325.207031 316.714844 L 323.609375 316.714844 Z M 321.710938 315.117188 L 325.148438 315.117188 C 326.328125 315.117188 328.644531 315.117188 328.644531 317.753906 C 328.644531 319.59375 327.460938 319.976562 326.757812 320.207031 C 328.132812 320.300781 328.226562 321.203125 328.410156 322.476562 C 328.503906 323.277344 328.65625 324.652344 328.933594 325.117188 L 326.816406 325.117188 C 326.757812 324.652344 326.433594 322.105469 326.433594 321.96875 C 326.292969 321.402344 326.097656 321.121094 325.390625 321.121094 L 323.644531 321.121094 L 323.644531 325.128906 L 321.710938 325.128906 Z M 317.578125 320.09375 C 317.578125 324.238281 320.921875 327.59375 325.03125 327.59375 C 329.175781 327.59375 332.519531 324.167969 332.519531 320.09375 C 332.519531 315.9375 329.128906 312.640625 325.019531 312.640625 C 320.96875 312.640625 317.566406 315.890625 317.566406 320.082031 M 333.957031 320.117188 C 333.957031 325.023438 329.941406 329.027344 325.042969 329.027344 C 320.183594 329.027344 316.132812 325.070312 316.132812 320.117188 C 316.132812 315.070312 320.273438 311.203125 325.042969 311.203125 C 329.847656 311.203125 333.945312 315.082031 333.945312 320.117188 "/>
<path style=" stroke:none;fill-rule:evenodd;fill:rgb(20%,20%,20%);fill-opacity:1;" d="M 109.878906 204.015625 C 109.878906 201.886719 108.757812 199.929688 106.917969 198.871094 L 57.894531 170.664062 C 57.066406 170.179688 56.140625 169.925781 55.199219 169.890625 L 54.695312 169.890625 C 53.753906 169.925781 52.828125 170.179688 51.984375 170.664062 L 2.964844 198.871094 C 1.140625 199.9375 0 201.890625 0 204.023438 L 0.109375 279.992188 C 0.109375 281.046875 0.652344 282.03125 1.578125 282.550781 C 2.480469 283.105469 3.613281 283.105469 4.515625 282.550781 L 33.660156 265.863281 C 35.5 264.765625 36.625 262.832031 36.625 260.722656 L 36.625 225.230469 C 36.625 223.113281 37.746094 221.15625 39.582031 220.105469 L 51.988281 212.957031 C 52.910156 212.425781 53.921875 212.160156 54.949219 212.160156 C 55.964844 212.160156 57 212.421875 57.894531 212.957031 L 70.296875 220.101562 C 72.132812 221.152344 73.261719 223.109375 73.261719 225.226562 L 73.261719 260.71875 C 73.261719 262.824219 74.398438 264.769531 76.230469 265.855469 L 105.355469 282.535156 C 106.269531 283.078125 107.40625 283.078125 108.316406 282.535156 C 109.214844 282.011719 109.785156 281.03125 109.785156 279.976562 Z M 341.207031 243.570312 C 341.207031 244.101562 340.925781 244.589844 340.464844 244.851562 L 323.628906 254.558594 C 323.171875 254.820312 322.605469 254.820312 322.148438 254.558594 L 305.308594 244.851562 C 304.847656 244.589844 304.570312 244.097656 304.570312 243.570312 L 304.570312 224.132812 C 304.570312 223.601562 304.847656 223.113281 305.296875 222.847656 L 322.128906 213.125 C 322.589844 212.859375 323.15625 212.859375 323.621094 213.125 L 340.460938 222.847656 C 340.921875 223.113281 341.199219 223.601562 341.199219 224.132812 Z M 345.753906 99.589844 C 344.835938 99.078125 343.71875 99.089844 342.8125 99.621094 C 341.90625 100.152344 341.351562 101.125 341.351562 102.175781 L 341.351562 177.410156 C 341.351562 178.148438 340.957031 178.832031 340.316406 179.203125 C 339.679688 179.574219 338.886719 179.574219 338.242188 179.203125 L 325.964844 172.128906 C 324.136719 171.070312 321.882812 171.070312 320.046875 172.128906 L 271.007812 200.429688 C 269.175781 201.484375 268.046875 203.441406 268.046875 205.546875 L 268.046875 262.167969 C 268.046875 264.285156 269.175781 266.230469 271.007812 267.292969 L 320.046875 295.617188 C 321.878906 296.667969 324.132812 296.667969 325.96875 295.617188 L 375.007812 267.28125 C 376.835938 266.21875 377.972656 264.273438 377.972656 262.15625 L 377.972656 121.046875 C 377.972656 118.898438 376.800781 116.921875 374.925781 115.871094 Z M 509.058594 223.621094 C 510.878906 222.5625 512 220.609375 512 218.5 L 512 204.78125 C 512 202.667969 510.878906 200.722656 509.050781 199.660156 L 460.324219 171.371094 C 458.484375 170.304688 456.226562 170.304688 454.386719 171.371094 L 405.359375 199.667969 C 403.519531 200.734375 402.398438 202.679688 402.398438 204.796875 L 402.398438 261.394531 C 402.398438 263.523438 403.542969 265.492188 405.382812 266.542969 L 454.097656 294.3125 C 455.894531 295.339844 458.089844 295.351562 459.910156 294.34375 L 489.375 277.96875 C 490.300781 277.445312 490.890625 276.464844 490.890625 275.398438 C 490.890625 274.332031 490.324219 273.339844 489.398438 272.816406 L 440.070312 244.507812 C 439.144531 243.988281 438.578125 243.003906 438.578125 241.949219 L 438.578125 224.195312 C 438.578125 223.136719 439.132812 222.15625 440.058594 221.628906 L 455.40625 212.777344 C 456.320312 212.242188 457.445312 212.242188 458.359375 212.777344 L 473.714844 221.628906 C 474.632812 222.152344 475.199219 223.136719 475.199219 224.1875 L 475.199219 238.148438 C 475.199219 239.199219 475.765625 240.183594 476.679688 240.714844 C 477.59375 241.238281 478.726562 241.238281 479.640625 240.703125 Z M 509.058594 223.621094 "/>
<path style=" stroke:none;fill-rule:evenodd;fill:rgb(40.784314%,62.352941%,38.823529%);fill-opacity:1;" d="M 456.640625 220.972656 C 456.988281 220.765625 457.421875 220.765625 457.773438 220.972656 L 467.183594 226.398438 C 467.535156 226.605469 467.75 226.980469 467.75 227.382812 L 467.75 238.25 C 467.75 238.65625 467.535156 239.03125 467.183594 239.234375 L 457.773438 244.664062 C 457.421875 244.867188 456.988281 244.867188 456.640625 244.664062 L 447.234375 239.234375 C 446.875 239.03125 446.65625 238.65625 446.65625 238.25 L 446.65625 227.382812 C 446.65625 226.980469 446.863281 226.605469 447.222656 226.398438 Z M 456.640625 220.972656 "/>
<g clip-path="url(#clip1)" clip-rule="nonzero">
<g clip-path="url(#clip2)" clip-rule="nonzero">
<path style=" stroke:none;fill-rule:nonzero;fill:url(#linear0);" d="M 292.890625 195.019531 L 155.488281 127.671875 L 85.035156 271.390625 L 222.433594 338.742188 Z M 292.890625 195.019531 "/>
</g>
</g>
<g clip-path="url(#clip3)" clip-rule="nonzero">
<g clip-path="url(#clip4)" clip-rule="nonzero">
<path style=" stroke:none;fill-rule:nonzero;fill:url(#linear1);" d="M 76.117188 214.9375 L 173.132812 346.25 L 301.445312 251.453125 L 204.417969 120.144531 Z M 76.117188 214.9375 "/>
</g>
</g>
<g clip-path="url(#clip5)" clip-rule="nonzero">
<g clip-path="url(#clip6)" clip-rule="nonzero">
<path style=" stroke:none;fill-rule:nonzero;fill:url(#linear2);" d="M 137.398438 170.878906 L 137.398438 295.21875 L 243.515625 295.21875 L 243.515625 170.878906 Z M 137.398438 170.878906 "/>
</g>
</g>
</g>
</svg>
