<?xml version="1.0" encoding="UTF-8"?>
<svg xmlns="http://www.w3.org/2000/svg" xmlns:xlink="http://www.w3.org/1999/xlink" width="512px" height="512px" viewBox="0 0 512 512" version="1.1">
<g id="surface1">
<path style=" stroke:none;fill-rule:nonzero;fill:rgb(2.745098%,71.372549%,83.529412%);fill-opacity:1;" d="M 250.625 115.96875 C 167.9375 118.59375 143.359375 177.664062 137.726562 209.664062 C 145.066406 197.800781 168.191406 171.777344 202.238281 171.777344 C 241.921875 171.777344 272.128906 216.0625 290.558594 229.886719 C 312.953125 246.683594 357.949219 268.859375 417.023438 250.878906 C 464.128906 236.542969 485.972656 186.539062 490.753906 162.816406 C 467.96875 193.792969 433.40625 212.398438 390.65625 190.464844 C 361.214844 175.359375 339.199219 113.152344 250.625 115.96875 Z M 250.625 115.96875 "/>
<path style=" stroke:none;fill-rule:nonzero;fill:rgb(2.745098%,71.372549%,83.529412%);fill-opacity:1;" d="M 133.632812 256.511719 C 50.945312 259.140625 26.367188 318.207031 20.734375 350.207031 C 28.074219 338.347656 51.199219 312.320312 85.246094 312.320312 C 124.929688 312.320312 155.136719 356.609375 173.566406 370.433594 C 195.960938 387.226562 240.957031 409.402344 300.03125 391.425781 C 347.136719 377.089844 368.980469 327.082031 373.761719 303.359375 C 350.976562 334.335938 316.414062 352.941406 273.664062 331.007812 C 244.222656 315.902344 222.207031 253.695312 133.632812 256.511719 Z M 133.632812 256.511719 "/>
</g>
</svg>
